<mxfile modified="2021-06-04T06:16:39.523Z" host="app.diagrams.net" agent="5.0 (Windows NT 10.0; WOW64) AppleWebKit/537.36 (KHTML, like Gecko) Chrome/75.0.3770.100 Safari/537.36" etag="ly1x4wlVbqwxVangnpaA" version="14.7.4" type="github">
  <diagram id="Ht1M8jgEwFfnCIfOTk4-" name="Page-1">
    <mxGraphModel dx="1382" dy="760" grid="0" gridSize="10" guides="1" tooltips="1" connect="1" arrows="1" fold="1" page="1" pageScale="1" pageWidth="1169" pageHeight="827" math="0" shadow="0">
      <root>
        <mxCell id="0" />
        <mxCell id="1" parent="0" />
        <mxCell id="Ln0wYWGK2Pg7mDHhLt9o-11" value="阿里云/腾讯云/华为云" style="points=[[0,0],[0.25,0],[0.5,0],[0.75,0],[1,0],[1,0.25],[1,0.5],[1,0.75],[1,1],[0.75,1],[0.5,1],[0.25,1],[0,1],[0,0.75],[0,0.5],[0,0.25]];outlineConnect=0;html=1;whiteSpace=wrap;fontSize=20;fontStyle=1;shape=mxgraph.aws4.group;grIcon=mxgraph.aws4.group_aws_cloud;verticalAlign=top;align=left;spacingLeft=30;dashed=1;shadow=1;sketch=0;" parent="1" vertex="1">
          <mxGeometry x="296.5" y="158" width="807.5" height="642" as="geometry" />
        </mxCell>
        <mxCell id="7YA4XFrxnDAU5ptN0OJv-4" value="鲲鹭云" style="verticalAlign=top;fontStyle=1;fillColor=#f9f7ed;fontSize=20;strokeColor=#36393d;align=right;gradientDirection=east;rounded=0;glass=1;shadow=1;sketch=0;" parent="1" vertex="1">
          <mxGeometry x="326" y="197" width="751" height="583" as="geometry" />
        </mxCell>
        <mxCell id="Ln0wYWGK2Pg7mDHhLt9o-24" value="mqtt集群" style="points=[[0,0],[0.25,0],[0.5,0],[0.75,0],[1,0],[1,0.25],[1,0.5],[1,0.75],[1,1],[0.75,1],[0.5,1],[0.25,1],[0,1],[0,0.75],[0,0.5],[0,0.25]];outlineConnect=0;html=1;whiteSpace=wrap;fontSize=20;fontStyle=1;shape=mxgraph.aws4.group;grIcon=mxgraph.aws4.group_aws_step_functions_workflow;strokeColor=#82b366;fillColor=#d5e8d4;verticalAlign=top;align=left;spacingLeft=30;dashed=0;shadow=1;sketch=0;" parent="1" vertex="1">
          <mxGeometry x="675.07" y="232.5" width="148" height="138" as="geometry" />
        </mxCell>
        <mxCell id="Ln0wYWGK2Pg7mDHhLt9o-51" style="edgeStyle=none;rounded=0;orthogonalLoop=1;jettySize=auto;html=1;fontFamily=Tahoma;fontSize=20;fontStyle=1;strokeWidth=3;shadow=1;" parent="1" source="Ln0wYWGK2Pg7mDHhLt9o-35" target="1yn95lNJv_hw5B5bu8lK-18" edge="1">
          <mxGeometry relative="1" as="geometry">
            <mxPoint x="722.6808510638298" y="695.4000000000001" as="targetPoint" />
          </mxGeometry>
        </mxCell>
        <mxCell id="Ln0wYWGK2Pg7mDHhLt9o-55" style="edgeStyle=none;rounded=0;orthogonalLoop=1;jettySize=auto;html=1;fontFamily=Tahoma;fontSize=20;fontStyle=1;strokeWidth=3;shadow=1;" parent="1" source="Ln0wYWGK2Pg7mDHhLt9o-35" target="Nti4WjDRyjgu_Wvz6jyu-3" edge="1">
          <mxGeometry relative="1" as="geometry">
            <mxPoint x="1019" y="545.5401929260449" as="targetPoint" />
          </mxGeometry>
        </mxCell>
        <mxCell id="Ln0wYWGK2Pg7mDHhLt9o-56" style="edgeStyle=none;rounded=0;orthogonalLoop=1;jettySize=auto;html=1;fontFamily=Tahoma;fontSize=20;fontStyle=1;strokeWidth=3;shadow=1;" parent="1" source="Ln0wYWGK2Pg7mDHhLt9o-35" target="Nti4WjDRyjgu_Wvz6jyu-1" edge="1">
          <mxGeometry relative="1" as="geometry">
            <mxPoint x="986" y="614.1294964028777" as="targetPoint" />
          </mxGeometry>
        </mxCell>
        <mxCell id="Ln0wYWGK2Pg7mDHhLt9o-58" style="edgeStyle=none;rounded=0;orthogonalLoop=1;jettySize=auto;html=1;fontFamily=Tahoma;fontSize=20;fontStyle=1;strokeWidth=3;shadow=1;" parent="1" source="Ln0wYWGK2Pg7mDHhLt9o-35" target="Nti4WjDRyjgu_Wvz6jyu-2" edge="1">
          <mxGeometry relative="1" as="geometry">
            <mxPoint x="922" y="647" as="targetPoint" />
          </mxGeometry>
        </mxCell>
        <mxCell id="1yn95lNJv_hw5B5bu8lK-10" style="edgeStyle=none;rounded=0;orthogonalLoop=1;jettySize=auto;html=1;strokeWidth=3;fontColor=#212121;fontStyle=1;entryX=0;entryY=0.75;entryDx=0;entryDy=0;shadow=1;fontSize=20;" parent="1" source="Ln0wYWGK2Pg7mDHhLt9o-35" target="Nti4WjDRyjgu_Wvz6jyu-4" edge="1">
          <mxGeometry relative="1" as="geometry">
            <mxPoint x="951" y="492.3833333333332" as="targetPoint" />
          </mxGeometry>
        </mxCell>
        <mxCell id="Ln0wYWGK2Pg7mDHhLt9o-35" value="swarm集群" style="points=[[0,0],[0.25,0],[0.5,0],[0.75,0],[1,0],[1,0.25],[1,0.5],[1,0.75],[1,1],[0.75,1],[0.5,1],[0.25,1],[0,1],[0,0.75],[0,0.5],[0,0.25]];outlineConnect=0;html=1;whiteSpace=wrap;fontSize=20;fontStyle=1;shape=mxgraph.aws4.group;grIcon=mxgraph.aws4.group_on_premise;strokeColor=#d6b656;fillColor=#fff2cc;verticalAlign=top;align=left;spacingLeft=30;dashed=0;shadow=1;" parent="1" vertex="1">
          <mxGeometry x="598.01" y="435.5" width="303.99" height="228.5" as="geometry" />
        </mxCell>
        <mxCell id="SCVMTBWpLvtzJIhz15lM-1" value="" style="line;strokeWidth=2;html=1;fontSize=20;fontStyle=1" parent="1" vertex="1">
          <mxGeometry x="52.5" y="139.5" width="1060" height="10" as="geometry" />
        </mxCell>
        <mxCell id="Ln0wYWGK2Pg7mDHhLt9o-12" value="" style="edgeStyle=none;rounded=0;orthogonalLoop=1;jettySize=auto;html=1;fontStyle=1;strokeWidth=2;shadow=1;fontSize=20;" parent="1" source="Ln0wYWGK2Pg7mDHhLt9o-3" target="Ln0wYWGK2Pg7mDHhLt9o-11" edge="1">
          <mxGeometry relative="1" as="geometry" />
        </mxCell>
        <mxCell id="Ln0wYWGK2Pg7mDHhLt9o-3" value="互联网" style="outlineConnect=0;fontColor=#232F3E;gradientColor=none;fillColor=#232F3E;strokeColor=none;dashed=0;verticalLabelPosition=bottom;verticalAlign=top;align=center;html=1;fontSize=20;fontStyle=1;aspect=fixed;pointerEvents=1;shape=mxgraph.aws4.internet;shadow=1;sketch=0;" parent="1" vertex="1">
          <mxGeometry x="130" y="327" width="141.38" height="87" as="geometry" />
        </mxCell>
        <mxCell id="Ln0wYWGK2Pg7mDHhLt9o-13" style="edgeStyle=none;rounded=0;orthogonalLoop=1;jettySize=auto;html=1;fontStyle=1;fontSize=20;" parent="1" source="Ln0wYWGK2Pg7mDHhLt9o-10" target="Ln0wYWGK2Pg7mDHhLt9o-3" edge="1">
          <mxGeometry relative="1" as="geometry" />
        </mxCell>
        <mxCell id="1yn95lNJv_hw5B5bu8lK-8" style="edgeStyle=none;rounded=0;orthogonalLoop=1;jettySize=auto;html=1;fontColor=#212121;strokeWidth=2;fontStyle=1;shadow=1;fontSize=20;" parent="1" source="Ln0wYWGK2Pg7mDHhLt9o-10" target="Ln0wYWGK2Pg7mDHhLt9o-3" edge="1">
          <mxGeometry relative="1" as="geometry" />
        </mxCell>
        <mxCell id="Ln0wYWGK2Pg7mDHhLt9o-10" value="PC，APP，设备" style="outlineConnect=0;gradientColor=none;fontColor=#545B64;strokeColor=none;fillColor=#879196;dashed=0;verticalLabelPosition=bottom;verticalAlign=top;align=center;html=1;fontSize=20;fontStyle=1;aspect=fixed;shape=mxgraph.aws4.illustration_devices;pointerEvents=1;shadow=1;sketch=0;" parent="1" vertex="1">
          <mxGeometry x="100" y="435.5" width="60.27" height="44" as="geometry" />
        </mxCell>
        <mxCell id="Ln0wYWGK2Pg7mDHhLt9o-16" value="" style="edgeStyle=none;rounded=0;orthogonalLoop=1;jettySize=auto;html=1;shape=link;fontStyle=1;exitX=0.5;exitY=1;exitDx=0;exitDy=0;fontSize=20;shadow=1;" parent="1" source="a6vqPckB2kI22RjsVBpU-12" target="a6vqPckB2kI22RjsVBpU-14" edge="1">
          <mxGeometry relative="1" as="geometry">
            <mxPoint x="711.5" y="317.5" as="sourcePoint" />
            <mxPoint x="743" y="337" as="targetPoint" />
          </mxGeometry>
        </mxCell>
        <mxCell id="Ln0wYWGK2Pg7mDHhLt9o-27" style="edgeStyle=none;shape=link;rounded=0;orthogonalLoop=1;jettySize=auto;html=1;exitX=1;exitY=1;exitDx=0;exitDy=0;fontStyle=1;fontSize=20;" parent="1" source="Ln0wYWGK2Pg7mDHhLt9o-11" target="Ln0wYWGK2Pg7mDHhLt9o-11" edge="1">
          <mxGeometry relative="1" as="geometry" />
        </mxCell>
        <mxCell id="Ln0wYWGK2Pg7mDHhLt9o-38" value="。。。" style="text;html=1;strokeColor=none;fillColor=none;align=center;verticalAlign=middle;whiteSpace=wrap;rounded=0;fontStyle=1;fontSize=20;fontFamily=Tahoma;shadow=1;" parent="1" vertex="1">
          <mxGeometry x="792" y="593" width="40" height="20" as="geometry" />
        </mxCell>
        <mxCell id="Ln0wYWGK2Pg7mDHhLt9o-40" value="" style="endArrow=classic;startArrow=classic;html=1;fontFamily=Tahoma;fontSize=20;entryX=0.5;entryY=1;entryDx=0;entryDy=0;fontStyle=1;strokeWidth=3;shadow=1;" parent="1" source="Ln0wYWGK2Pg7mDHhLt9o-35" target="Ln0wYWGK2Pg7mDHhLt9o-24" edge="1">
          <mxGeometry width="50" height="50" relative="1" as="geometry">
            <mxPoint x="736.5" y="432" as="sourcePoint" />
            <mxPoint x="786.5" y="382" as="targetPoint" />
          </mxGeometry>
        </mxCell>
        <mxCell id="1yn95lNJv_hw5B5bu8lK-5" style="rounded=0;orthogonalLoop=1;jettySize=auto;html=1;entryX=0;entryY=0.5;entryDx=0;entryDy=0;fontColor=#212121;fontStyle=1;strokeWidth=3;shadow=1;fontSize=20;" parent="1" source="1yn95lNJv_hw5B5bu8lK-7" target="Ln0wYWGK2Pg7mDHhLt9o-24" edge="1">
          <mxGeometry relative="1" as="geometry">
            <mxPoint x="428.9987863322335" y="380.92620610495896" as="sourcePoint" />
          </mxGeometry>
        </mxCell>
        <mxCell id="9Y72CjgM9rdpncZ68y70-1" value="mqtt" style="edgeLabel;html=1;align=center;verticalAlign=middle;resizable=0;points=[];fontStyle=1;fontSize=20;" parent="1yn95lNJv_hw5B5bu8lK-5" vertex="1" connectable="0">
          <mxGeometry x="0.2238" y="-5" relative="1" as="geometry">
            <mxPoint x="-22" as="offset" />
          </mxGeometry>
        </mxCell>
        <mxCell id="MNj4Q5Tv23RKPfTUr8Oh-10" style="rounded=0;orthogonalLoop=1;jettySize=auto;html=1;entryX=0;entryY=0.25;entryDx=0;entryDy=0;strokeWidth=3;fontStyle=1;shadow=1;sketch=0;fontSize=20;" parent="1" source="1yn95lNJv_hw5B5bu8lK-7" target="Ln0wYWGK2Pg7mDHhLt9o-35" edge="1">
          <mxGeometry relative="1" as="geometry" />
        </mxCell>
        <mxCell id="MNj4Q5Tv23RKPfTUr8Oh-11" value="tcp, websocket" style="edgeLabel;html=1;align=center;verticalAlign=middle;resizable=0;points=[];fontStyle=1;fontSize=20;" parent="MNj4Q5Tv23RKPfTUr8Oh-10" vertex="1" connectable="0">
          <mxGeometry x="0.1855" y="-1" relative="1" as="geometry">
            <mxPoint x="-20" y="-12" as="offset" />
          </mxGeometry>
        </mxCell>
        <mxCell id="1yn95lNJv_hw5B5bu8lK-7" value="负载均衡" style="outlineConnect=0;dashed=0;verticalLabelPosition=middle;verticalAlign=bottom;align=center;html=1;whiteSpace=wrap;fontSize=18;fontStyle=1;spacing=3;shape=mxgraph.aws4.productIcon;prIcon=mxgraph.aws4.network_load_balancer;fillColor=#b1ddf0;strokeColor=#10739e;fontColor=#FFFFFF;shadow=1;" parent="1" vertex="1">
          <mxGeometry x="344" y="289" width="102" height="131" as="geometry" />
        </mxCell>
        <mxCell id="1yn95lNJv_hw5B5bu8lK-12" value="" style="edgeStyle=none;rounded=0;orthogonalLoop=1;jettySize=auto;html=1;strokeWidth=3;fontColor=#FFFFFF;entryX=0;entryY=0.5;entryDx=0;entryDy=0;fontStyle=1;exitX=1;exitY=0.5;exitDx=0;exitDy=0;sketch=0;shadow=1;fontSize=20;" parent="1" source="Nti4WjDRyjgu_Wvz6jyu-10" target="Ln0wYWGK2Pg7mDHhLt9o-35" edge="1">
          <mxGeometry relative="1" as="geometry">
            <mxPoint x="396" y="552" as="sourcePoint" />
          </mxGeometry>
        </mxCell>
        <mxCell id="MNj4Q5Tv23RKPfTUr8Oh-12" value="http" style="edgeLabel;html=1;align=center;verticalAlign=middle;resizable=0;points=[];fontStyle=1;fontSize=20;" parent="1yn95lNJv_hw5B5bu8lK-12" vertex="1" connectable="0">
          <mxGeometry x="-0.3027" y="-3" relative="1" as="geometry">
            <mxPoint y="-6" as="offset" />
          </mxGeometry>
        </mxCell>
        <mxCell id="1yn95lNJv_hw5B5bu8lK-14" value="&lt;font color=&quot;#000000&quot; style=&quot;font-size: 20px;&quot;&gt;redis&lt;/font&gt;" style="outlineConnect=0;dashed=0;verticalLabelPosition=bottom;verticalAlign=top;align=center;html=1;shape=mxgraph.aws3.redis;fillColor=#2E73B8;gradientColor=none;fontColor=#FFFFFF;fontStyle=1;shadow=1;fontSize=20;" parent="1" vertex="1">
          <mxGeometry x="909" y="680.75" width="51" height="58.25" as="geometry" />
        </mxCell>
        <mxCell id="1yn95lNJv_hw5B5bu8lK-15" style="rounded=0;orthogonalLoop=1;jettySize=auto;html=1;fontColor=#212121;fontStyle=1;strokeWidth=3;exitX=0.75;exitY=1;exitDx=0;exitDy=0;entryX=0.5;entryY=0;entryDx=0;entryDy=0;entryPerimeter=0;shadow=1;fontSize=20;" parent="1" source="Ln0wYWGK2Pg7mDHhLt9o-35" target="1yn95lNJv_hw5B5bu8lK-14" edge="1">
          <mxGeometry relative="1" as="geometry">
            <mxPoint x="849" y="862.7073170731708" as="sourcePoint" />
            <mxPoint x="872" y="696" as="targetPoint" />
          </mxGeometry>
        </mxCell>
        <mxCell id="1yn95lNJv_hw5B5bu8lK-18" value="mongodb" style="dashed=0;outlineConnect=0;html=1;align=center;labelPosition=center;verticalLabelPosition=bottom;verticalAlign=top;shape=mxgraph.webicons.mongodb;gradientColor=#DFDEDE;fontColor=#33001A;fontStyle=1;shadow=1;fontSize=20;" parent="1" vertex="1">
          <mxGeometry x="690" y="688.75" width="60.5" height="50.25" as="geometry" />
        </mxCell>
        <mxCell id="Nti4WjDRyjgu_Wvz6jyu-1" value="kafka" style="points=[[0,0,0],[0.25,0,0],[0.5,0,0],[0.75,0,0],[1,0,0],[0,1,0],[0.25,1,0],[0.5,1,0],[0.75,1,0],[1,1,0],[0,0.25,0],[0,0.5,0],[0,0.75,0],[1,0.25,0],[1,0.5,0],[1,0.75,0]];outlineConnect=0;fontColor=#232F3E;gradientColor=#945DF2;gradientDirection=north;fillColor=#5A30B5;strokeColor=#ffffff;dashed=0;verticalLabelPosition=bottom;verticalAlign=top;align=center;html=1;fontSize=20;fontStyle=1;aspect=fixed;shape=mxgraph.aws4.resourceIcon;resIcon=mxgraph.aws4.managed_streaming_for_kafka;rounded=0;shadow=1;glass=1;" parent="1" vertex="1">
          <mxGeometry x="980" y="518.5" width="49" height="49" as="geometry" />
        </mxCell>
        <mxCell id="Nti4WjDRyjgu_Wvz6jyu-2" value="elk" style="outlineConnect=0;dashed=0;verticalLabelPosition=bottom;verticalAlign=top;align=center;html=1;shape=mxgraph.aws3.elasticsearch_service;fillColor=#F58534;gradientColor=none;rounded=0;shadow=1;glass=1;fontStyle=1;fontSize=20;" parent="1" vertex="1">
          <mxGeometry x="986.3299999999999" y="616" width="50" height="56" as="geometry" />
        </mxCell>
        <mxCell id="Nti4WjDRyjgu_Wvz6jyu-3" value="" style="shape=image;verticalLabelPosition=bottom;labelBackgroundColor=#ffffff;verticalAlign=top;aspect=fixed;imageAspect=0;image=data:image/png,iVBORw0KGgoAAAANSUhEUgAAALEAAAAtCAYAAADhjYr9AAALvklEQVR4Ae2dXYxdVRXH1xhG02nCh61Y0orTGEb8wLaatMGQaIPyVAMYPxJiQvHF4Iut+EQ01oQQDUHKE/rkEBMf8ME28qIRC0kjyoMdaPiwFTtIK0pbaFGmiTUZ8ztn/vfu2Xfvc/a5c89lTrNXcuacs/faa3+c/1577bXOuTOxuLi4aJnyCHR4BN7V4bbnpucRKEYggzgDofMjkEHc+UeYO5BBnDHQ+RHIIO78I8wdyCDOGOj8CGQQd/4R5g5kEGcMdH4ELhvowRP7zZ492E9ec6XZVx4yWzfdT9PVr/eZHX9KdyXPru+Heftc1VfInJgI83xgqxntmflMOH9UqX+YNXvjFbMb7xy+L+oH4zEMPfMLs5PP9Ut+8Yf96yGvnj/+0rKSH7vu+mX3TW6OnXjZLv7vYq9Iiqz5k3+3U/96zc69dd7evrBQlL163Xp733vX2/Sma23tmqmevCYXgyBm8C+cXy5j0xazL+xbnsbd4z8YTIP35j2D6akpIZmhsp/ebbbSCROSS9rTs2bHnionS2jyxsq56erHsCBG1m9+VEr8/HdcyUNf+yC+8vIrbOP7r2ksDwDOvXh0WbkqEAPaZ577cwHeZYXM7PWzZ4qDtm376A123fSHfJba+0EQ+wCuFeExLJzzEoa8dbXg2XkzDghwQWjLuQNmX37IDEBnajwCaMVhQHzqn68l1wWAD/3psF28WGpttC7alwkkjYyGho68cNT+s7BQgDm5AjMbBHGT0m3yAsyZz4ZrAMCP7TFjwjx6lxlmBselRju+Vt8jxoDJ3GAiA1wAzDEMzZ8qQScgxmSgsQXgqTVTdtOndhTgFb8m0LaP3FDwAerj8y8XIFeeeKvO3dzY8cDunzdbc0XZt1/urepjN/O232H29Z+Xx5ceCPeB1em+baX5E+YIpgogaEeA04QApsqgVato7oWjhQaevGxyAMBuucnJSdu54yYD6BDlmlA3QUwPp9hw7i/7+pcnS63cpOeXAq9rZjXoD2BBi0Inlpby1OKnz54pWAGmJkOoLECXpsdeVn0hXtIA8vZPfLLIZqKwcUyl7oKYHn7YMTdOzqX2OfOZFR4BBuIfDU0KAXPjhuoNoSYHYN+86dqkMZetDLNMlpSC3QbxsJ6DlJG5xHkELNc8qOsy5kcPxDVejR7fhmsKLVsnW/nS7mhy2pZCq3djl9L6VxO1L3yu7xvZW25tthlEBp6RC+dKX/XWW5v7kI892feuMAFpA2ZRjE4vLanvWWt2+YaSi43cyWfL61eXzniU5LWRLPYLFZtdlnfMioULC4VJgXurjgRMmRK4x0IE+JALXV1jN/vlXTsbIKf4jrsNYkAh2hTwTpA/e1ffPSdezvjDAdLdv6p82IUH5Ce3m2F3u4R3BH84gaA6YgI8cvtgOwDwrn1mN38rLGH/LWZn/mb2gONFwGx6cOdyfuQ/6JhW5BIQusdr8/JShU2LNwCTogmI60yJtxf6GlSbNa/q6C0mhQgQSzMrLXROA7F8tK4EBi5EaKpxEBrpiYfLmgiw+BoNAOthr/ug2Y27Sxv6zLwZQMBNR79+vNPsu0fiWhVwoPmQAWgBPi6tpx81I7qJDCZCjFQH7QVYtIO2Uj+rQ+EqfDMcTArJdCOW0sohrVuhhSUWkwIQozk5qrReE1Pi9Bt9DX3V0gZSdaac0fREAwFxCqWBmAfGg3SB4msm1QawWNpcXuW5Zx7GnT+r53PL6JqHB/g0ub665KVQPufZpQAIAEcjqT0zS0xowPu2mp19pdTKu2fd0uU1QKPfBF7c/K23mXGgXQE0YI5FKZFBe9HYLg/lKffY3jLyySY15hd3WwY4pWE1Ud00l7fm2jUpCGDMbI5Hy153gJmiHVU1XoemRLuYCP9dCpDUlU8DMVJimjdUQyovy2jKg1MdPLS5g6VfFGBATARfBvUDTohwuQBcppR/SQPIBEt8e1J8aEomgQtg5QFC2s+k5XABKh7Ov3+4tH1D+aQxCaifMPW3PZPAldPSNYBEG+MNqAKx7OEmAG6pyQNi00E8ULTlBDQUQAOsoUnB0gxAfQDTLJb8ew6VDQzZymo6QATE0uhK15m6mSQxAoQAmPKAEXk+ISM0CcSHDEDMyoYc2j5Gkkkhb0DMpFCoOQXEsQ1fW91avS42gMuDDQGYiB3ACAGYkQL85HGEtLBGsyoPHuzgEDBVHsChqSFWiRDVeSBc+TETLSR3RGkyKRAnoPqi0cJ6Yy0FxO8ewoTw62xyv3pBjA2JNtWBRmT5ZhODnUm4lXObFJskbp0KuIQmG3zKd8v413q1NLYi+PwjvhcwYwEG15RIsXGZGOOkdswJ31sQszmrespmxQWRuyF75LZyCW775Z+UpZ0NKhR7+y/BS9Abhpg27zG0c+GaFHghfKBKQwvs7bSiL1Vav59SfTV6EPs7eerXLry6LWm5mAB3HzC7d7oEDrKrbE6kFjbrwdK1xjVaUxvDqlqbADCmiavkK496hpnoKr/Cs0wKAhRoXV5QF2HfClTDgDg0KSQ7dpZrLdUsGT2IQ9qrCRhiPXPTATJ2MZsqPxLn8gFYNohsukLEiqHoVyi/zmamTB1P1cZSdUqb6/4dOBNk0JcXLohlShBJ8zV0rJlu1O3Nt84Xr1bGeP10QC9KNUtWr02snsTOBA2gmPcCzYjdDICxo/nCgqDGTxf7x/ciARvVmaKt63hSXkxaiRZXW1d4lpYtNnEOkARi5adUs3aq/5mRtGpKOXhcf7Q7GarKdxfErnb3bUmARTCEM9qWd49xx7llqkZFeU3Apc2ZyjY5K8oZWsWayFkBLyAlUgYJuABQ70DUhZrdqnHTKdx87t9pUTeVd91zbgha+aHz6EHMh6O+dmrLiyDg+GBD+6oN3zwQX/L9chohLe8Cl9JDZ8lQGfHI9UaYu47klXgHQUwTBVSBWK9TsqzH/Mexrklz+5o9xq901Z2qhSk3ehDj69x7ldk3JvoHYes2SN4L364VKABSFTD4IDRE0tgpmy2tAr4rTfXWmRNMAkUXfRmhtrWYJuBpSRegpjf2N3qp1Sv6h42ryVBXlhfhpfmrPjz15YwexH4Nbd4LbABBmtetL+b2ggegxyaXAhAFwCo0KSuM6lAZ1a976gi1TXx4VyDsdk1K5Y35LJMC4PH1sQAlDd2kOWhubRD5MrrONib/+b+WPymAFo6ZEvBhcjDBOLMZvTRAzOi6Gk8eA4Cq5d59AqTz8k4MXEwOmQN4N0KEXH3b536ZLV5ADDCp4/HAzx3AhxbXRAr9JIJkxc7yfLBixPoSKxtJF2CPzZfvMg9jSkg0H4DKNv7t4UPFOxqu9wE+7gGiPijFLt++pfxMSXLcM+0B4PBxxvsxehebW2Pb1yzZhIZZjjFjpMnwXAh8bPC4B5gCtVxueCz0+xB+W3kzjlc54QXw7g/IoIEBMMABqCEAMpF4LwL5uAJtovSQkE45wCtwM2HgbUrIUv/pJ6+Eyoyhr7puIBdtDKgENpkYDUT0WHHJ8YXzoT8eLnzNfJLP4WpZdyNHwY/PXF+836w32PBR878MYu8740seBDEPRUtkrzmr+AJtBIhdjcvDJUxNRA/AaMl2uwGAAV8MxEwIyQDIAr4rAwAReImBBfmACcDShlA72JwiY1jiY1kmGf2/d3NfCnL1ymY/tfaqZ1Is/brPSkBMZWjOXTtvsSMvHi0mB2k+cN1GAXKf6jZ5gyAm+uUCwpc4qnuAJs3pytQv5sSA4fJy/bk9pZb1+QmGrJ82+53zs1xoPDZPaD3xqz5fLvfIgJ+vQACjNnoABO1Ofh0xnvDRDmSwCZX9S7ps55Ccqjzxw3P/ibKNmCfaJKp/4jMzbZZcP66T3btE6+n7NkAYI+RIZoyHdDQyXzJjXrBprLOPfVkhz4j6AMAn8j+e8Ycs33dtBLq9sevaaOf2tjICGcStDGsWOs4RyCAe52jnuloZgQziVoY1Cx3nCGQQj3O0c12tjEAGcSvDmoWOcwQyiMc52rmuVkbg/5KFfhe+icpRAAAAAElFTkSuQmCC;fontStyle=1;fontSize=20;" parent="1" vertex="1">
          <mxGeometry x="972" y="478.5" width="78.66" height="20" as="geometry" />
        </mxCell>
        <mxCell id="Nti4WjDRyjgu_Wvz6jyu-4" value="" style="shape=image;verticalLabelPosition=bottom;labelBackgroundColor=#ffffff;verticalAlign=top;aspect=fixed;imageAspect=0;image=data:image/png,iVBORw0KGgoAAAANSUhEUgAAAGQAAAApCAYAAADDJIzmAAAIHElEQVR4Ae1aC0xURxQ9u7DA8seyWJbWUilEhRItCn5aXTW18RejBlExRUujDdomGmsT08aatpo0wU8IjTXWWNNY1ESRxqaFGq2NAaI0aADlI8EP8lNYYVkExG3u0Hm8fW9lHywka/tuMpmZO/feee+eN3dm7q7GZrPZoJLbeEDrNk+iPgjzgAqIm30IKiAqIG7mATd7HHWFqIC4mQfc7HE8h/s8fW0WPDN3gmqPEH9og3yhDfSFxtNjuCZVPQBDAqSrsBLWy2Ww5BY7dJ7HmAD4LUqA/6IE6F4f61BGZQ7uAY2Si2F32R2Yv/8dT67VDG6Nj3p6IDB5FkI+WcI5aq3QA04Bac/5C+ZDv8HW3avQ5ICY9+TXYfhmHWjlqKTMA4OGLPORAjz+oUCZJQdSfc2PQUUFRO6cc+fO4e7duygsLMSJEycEgeeuEAKCAJGSd+w4+C2kPSKM7RNaHy+2sdPmbr1UhvafLjEVrZ8PDN+mweetKKkJxf0LFy6why0tLcW9e/dgsVgwfvx4VoxGI8LDw7Fr1y7F9txJcO7cubh0qd9X4nSiwxXSfaPOIRh+701B6JdrZO/lqR8DT+MYEFg+U99Ax8+XEZA8yyUwTp48idWrV8vmKi8vBxWirKws2fiLznAISPvpK7L3Csv8APqZE2R8KUOfFAPvuHGgFcKp5bMfYb1cjlcLdkPrr+fs59bd3d3YuXOn3XhycjJiY2Nx69YtVFZWshIaGmon81/oyADpKqqE9Y/rdu/mvyxJERhcSQwG8XTRRvh0dCkCg+Tv37+P2tpabg7iJS0w/6MNWepEerTVBvshKG2eS68f/OG7GPvdR4pt0H7ByWQy8abTevfu3Vi+fDlCQkIQFxeHDRs24OjRo3Z6FLcpflMh6uzsxKlTp5CWlgZacVOmTMHp06ftdI4dO4bFixcjOjoaGo2G2V61ahW2bdsmyHGb3C4fEM8nHeMydjXdQ8T0IO2ArW76p0Jp/vwn8bDQ7iqpsT386qStMeOQrT3nL4EvbpCM+Ui+ra/Dauv8s8zWvOMYa4tlHLUvXrxIP5qxYjKZHInIeEajUdDhurxeu3atIC+2HRUV5VAnODjY1t7eznTE8twerw0Gg2CX86gWk1hf/C7U5jpieVnI6qmstwNM94o8Tj9taEPT5u8FuSd/30ZfRxdoJYjJcv4aOn8tgX52LKx/lrF9JKihDV7RzvcRsR1nbfpSHzx4wMRiYmIwc+ZM1r9+/TqamprYSW3NmjVYssT+onr79m3BNK3Eq1evshVjNptRUlIC4tHhgtPChQuRlJSExsZGNDc3o7W1lQ+NWC0DRGpZF/WylMXSJ1Jm99/0cvaABH+4AP6Lp8Ir2ojQL1IQuPod1pbqutKvr6/H/v37BRNnz57FpEmTWJ9CD4UWovPnz8sAmTZtGjIyMrBy5UoEBARg+/btyMzMFGxRgw4RnHbs2MFA4v3RqGV7iHQSjYdTEamKXb+3uoH1aVU9szyxGxuJTnV1tWCGvmgOBjHpZMZJ7FjOo31h/fr1DAziEShSSkhIEFgHDx7E4cOH0dHRIfBGuiHztjbQPpz03mmRzek7Ow5a/4FjLQno58TK5MxH8tF6IA8U0toO5KEp4xB6qvtDi0zYTRliQHJzc7Fp0yZMnDgRW7ZsQU2NwtzeEN5NFrL0iTHoFB17e+uaZOY8w0MQfnwraI8g8ooxwne2HBAKWTTGb+t0/KXw9SIR7T10Lzpz5gxLczx8+BAUJrOzs1kZ6SO5bIV4vxlp5y9Kh9AXLiUChTZxKo7AIHmSCUx5h6kSKNJNX2rTXfsU1vLy8nDjxg3k5OTYhUKe/hipZ5cDMjkSGh+dYJ+yvK3784T+cBp0Imv4IAu9d+Xhz5G9yMiBj8LZC0tlKyoqBJPi+wTlwFwlyp2lpKSwjMFgthoa+vfN/Px80L4zFJKFLK+YCAStM9nlsnprGlhf6RfeZ+6ER7Cf6DlseGa2QKOTTSeSGWiSk+fPnw9KLhLRZYxfEClkPHr0CFQfP36c5bto8+bOp4uh+NjLrc6bN7zL7ebNm5ltStvQgcFqtaKuro6bZZdF6sTHx7MVRG2aXywjCCtoOPRQYKqJ3Rl6qgY2YMr+9pTdQcjWZdC9Zniu6Y7cIlgLShH4/jxQXotobLbyWzo3vGfPHnZMbWnpX1WOVgqBQkQ37YiICHb3qKqqAhUxLViwAKmpqWKW4jY5lp6B5pc+w9KlS9m8ZGzFihUCIFIwDAYDs6FkUoeAUMgKSn8XlBQUU1dxFbrTs+BrioNX7DjoE6Oh0XuBVhCdxqxXbuJJcb8zeqoaEJa5Ad7xA+FHbMtZOzExkW2i+/btQ1FRkcP0O60UTrTRUuqEUvXkOAKI7hkzZszAxo0buRir+WqzY/7bkY6lp6djzpw5uHnzJoqLi9mXTymU6dOnY+/evYIJ+hmAstAFBQWYMGECS7XQsZpSMbTKxKGUK0nnIv5zfw+hQfq1sO3gL1x/yLXnq6EwfL2OnbSGrPw/VZBt6mI/0M16bPYmMWtIbZ/4SOjGq392GIrTBl0h3FBfy2O07jvHfhHkvMFqOu6GfLwEvnPfHExMHXPgAUWAcL3e2kZYL1egq/AWemub8MzSxYfgGfESdJFhrASuehseYUHCmNpQ7oEhASI1+7T+EfoeWxkIWl9v6bDaH4YHXAJkGPOpKk48MOim7kRXHR4FD6iAjIJTXTGpAuKK90ZBVwVkFJzqikkVEFe8Nwq6KiCj4FRXTKqAuOK9UdD9B+bJ2djGz+rBAAAAAElFTkSuQmCC;fontStyle=1;sketch=1;fontSize=20;" parent="1" vertex="1">
          <mxGeometry x="954" y="429" width="92.68" height="38" as="geometry" />
        </mxCell>
        <mxCell id="Nti4WjDRyjgu_Wvz6jyu-8" value="" style="edgeStyle=none;rounded=0;orthogonalLoop=1;jettySize=auto;html=1;shape=link;fontStyle=1;fontSize=20;shadow=1;" parent="1" source="a6vqPckB2kI22RjsVBpU-12" target="a6vqPckB2kI22RjsVBpU-13" edge="1">
          <mxGeometry relative="1" as="geometry">
            <mxPoint x="730.8499999999999" y="293" as="sourcePoint" />
            <mxPoint x="781" y="293" as="targetPoint" />
          </mxGeometry>
        </mxCell>
        <mxCell id="Nti4WjDRyjgu_Wvz6jyu-9" value="" style="edgeStyle=none;rounded=0;orthogonalLoop=1;jettySize=auto;html=1;shape=link;fontStyle=1;fontSize=20;shadow=1;exitX=0.5;exitY=1;exitDx=0;exitDy=0;entryX=1;entryY=0.25;entryDx=0;entryDy=0;" parent="1" source="a6vqPckB2kI22RjsVBpU-13" target="a6vqPckB2kI22RjsVBpU-14" edge="1">
          <mxGeometry relative="1" as="geometry">
            <mxPoint x="787.1737719298244" y="316.5" as="sourcePoint" />
            <mxPoint x="779.2185964912278" y="328" as="targetPoint" />
          </mxGeometry>
        </mxCell>
        <mxCell id="Nti4WjDRyjgu_Wvz6jyu-10" value="nginx" style="shape=image;html=1;verticalAlign=top;verticalLabelPosition=bottom;labelBackgroundColor=#ffffff;imageAspect=0;aspect=fixed;image=https://cdn4.iconfinder.com/data/icons/logos-brands-5/24/nginx-128.png;fontStyle=1;sketch=0;fontSize=20;" parent="1" vertex="1">
          <mxGeometry x="346" y="518.5" width="67" height="67" as="geometry" />
        </mxCell>
        <mxCell id="Nti4WjDRyjgu_Wvz6jyu-11" value="操作机（windows）" style="shape=image;verticalLabelPosition=bottom;labelBackgroundColor=#ffffff;verticalAlign=top;aspect=fixed;imageAspect=0;image=data:image/png,iVBORw0KGgoAAAANSUhEUgAAAI8AAACCCAYAAAB//ZtNAAAgAElEQVR4Ae29+ZNlyXXf973be6/23qYHPUvPgtlBwgNiJTCEKBEkBNBBS0GZZJAEHQ6bpkRG+BfzJ/8B/sUORzgcVki06ZBCtLhKtCFCDJBAUDT2ldiJGWB6lp6le6q7uva33M3xOefme/dVvaququ7B4tDtfnW3vLmc/ObJkydPnox2dnbqKIpUlqXCkee5sixTHMfhkQhzu4+6rhV+xB3yUFWVpc27vXlIkuRYeaklRfxpjppiNOlWVakoTkR6dVUpTVPFUaRatUR560j8syOq7FSH+ya+yckTGYefvJi6apeXa2hNmSg7NG7/eM+7Ng2mIjvmDfFxUN5wkO7eNI5a12kISAa5JgGIGJ6Hc0jsdp+t4lpEKorCkggFDQQ8aT4ADoAJ+Im5qAGIFCUOFuI2cnKODV0E8nyELxsE+mlGQ6qbhjb1KqQ6oRrlocICvS3tqhqDJjQcKpTjpOWepDi5CnFx5kde2vmYhDzaVRqCtSMGPEQcnoUwt/NM/BAKQsLl2mlxHQoVChjOx80DYCkiqYokrh08tahrQGX3ipTGqYVx/gtZ4D6kFgDglcl9XAO1vTym4Uw14RyAdTTNp9plpnwcnANguN9L+zZd7IPb8CfEyTmA9CTRRru7u4E6J/n+xN8E4BBBIF4g6Gg0Uq/XmwLUSROq4TJRaV0RXINqjZQ6N4oqe25vIWQdKa1iifBGFevA/Js4sWdVVMpjk1Lr1lLr4pyIhM8V17GqKBZRZaCx1T2HclNWflQgoAqNKNDgpOX9Xn435jzfy0RDWhAKwvGDiKFF0Ppu15HUpSrRLSUqFRnHyctCW0WlzbzSTh5pvaq1MSq0WdbaKmL1y0gjOFYjGyRxpLk61lwqLWaVllPpVJZoKam1kFVaTCOtxLF6IDPJFNMdwFlNwJqUhHIGcAAijnA/CfXDc3X7aumYZQ4tjjNgoeVxwEa5D0BqR+utmxqqFAG4sVwSq47i8T2PeTuoa+2UldYK6bVhqVf6la4Maq0PS60WtW7k0mZRaaeolRexRpWDpoylkq6udnAjRKeV4FdK40pZXGkuLtXNpOW01ulUOp9FuiOLdWE+0YW5SHd0Ip3qpFpIImWKRCcVJ5SzUBTHSsmjXUt1XNu7vR1hu+w/iNffN/BADAASQLKX+9yUWFGpCEEmclmkriuVirVVlOrn0lpZ63Je6dnNkb6xMdTzA2l1lGpjlGpYlhrFsUqTOxKpThQTVzhcEDJohj49HnORCcnKqBScLakrZZJ6UaVTHel8d1f3zVV6YmVRDy13dDecKo00l9VajBDSpSSWqhLuQ1cXG7iCrBSy8YN+/r7JPIEwgIYjgCg8n3WG28gkjlQFldB0eUVUalCXWh1JX70x1BfW+vrqZqVL/Z5uFKnKhDZdWyU732pkDaouQnKGL0z4WuAAPPGnFtDz2YjD3ADYiCG8DemM3dkIv0KdABfNSy2mIz04n+stS7Hefm5OT5ye04Wk0DwNR8hLiRTBiUaWR8vPrML/AD77voPnIJpYpYWas8pB8HX9S1LVqlRpJOnKUPrW5kifXu3rk9drrZZz2lasnG8ZZqmwURQCLC2cI4qCTov3E05yUF5u/hwO4jIMXAxeEsm5UqxUVRqrI2lRlc4lu3rPuY6eOtfRm5ZjXehFojwWDkZKlsh7W68WBn68+wE6fmDBE1WMWBhiI0xTMbniKjUhdLus9cKg1Kev5/rs9YGeHaS6mne1XZT2voSbWAVCabolOgRqxNHoKhmrISSR21AdbfBQw17LpYG9UmK4ihTVkZKo1lKW6Hw60kNzud52NtOPn8n0YC/RcgJHrIXMFZFvcldJSe0yWBPtbcjv7YniBxA8TnhkEIBjVR7BZwrdGEqX+tJX1+E0ub7WT3Q9j9VXZiOqOKoVV97uIY9rWag0B49xLl5YEp7OUcloUAt42/eR5dKfWtcKIMk/j+omfb+Gx9SmFijVjSqdTQu9abHST5xN9GMrme5biHW6kyhBX0TDQYFq4AFRpPP9O4JcGnLwgwWe1nRAHRVGuLKKNaik1Vz6i9cG+sjVvr61G2m96KpIE9e1jIXZUKzbf4Z5IEeDh9uWnGGBIX2ts/FQjy0W+vt39/T+M10buXUTF6xJM64S1bCh79MBcAJ4gnx6S+BBV9EeMd1yuVrgqaJcozjTal7rM6/t6F+8tKOnN+c1KDveNcWFqqRSXCOzHI+LnCSftx88xOicpLQRW6qkitRNB3p8ZUe/es+CfuLsos53EnXq6vsOHlQpoa6PDZ4wKoLwXBMZ4EEvwy9EeJKKQQNLqy5jWH2suKq0U9b60kahP3pxR19YT7RaZupHiL9gxbXBlpaxgQY8R2LrpWuXica6GCowmeoRAhTpNkPeYlo9gjrKPZvK8G7Fy4tE5V+hbTrS0eqByrjwyQ7roiIt1InOpn299VSpX7xvXm9dyrQYRyrSWInRyqBs3eLtkNj25rdd17wLdc01Orig2DzWUINI+QWOA2gCIrk+6YEsMjLdSqxBmetyv9LHXin1l9dGemaQaSNnOoHREsKz1WeL2xyxssgcYLFJUq+5sQxko2yXU6wMzQw6nAEFoQMIAZ7vI5VFpShrVJSWPPE1+TBp/Ch5moSJbD7MqQcsdupYu0VHG+u5XhoN9L4zhX7mQqp757uaQ4FJVkMXOkn5pOSf+V2oa86ABeaABUCoe+6PBR6AwkFkAUTc8zwkMDMnBzxsqtCGuXkUaX1U6rvbpf7vF/v66PVU62VPBXodKpD/dWQcqs1snPVPKmJvUuMG3hC7TfRQ4cBgoiPkCyY0GOUggFdupkEeKhdgjc9UhZSgc+bwb/wGvVGTiylOuDePBPJnQQEZPisTNOhMm3T1pe1al/qFXhj09Y/ujfXGhUQrnUipk2SS1t6Cn/A+gCbUNUwhPAMwbWZxqMzDR+EAcZhLEAFA4b6NQp4zO36zYxxliwNUtbSeS/9+ta9//eJQ39zsimGuc5tYdbArImA4zHQi3Ow5t4I5DPw9M1xxXSqOeOr/UqWKk9KAkUTMgPnQOksipXlpdj6CgHGtUZ1rBPelzVVdVUmkYVyrtBGec2Wpa9BzvJORkBmA0rAMsrMXS3uKwPgyrtA8I1eipsj05MKufum+rj54x7yWu67bRA0QMEqaJz3aAAl1HRhCAEw7bur6UM5DhAEkRER/t491NfNQ7cTbiey9ZtiZ26jTVXZFLV0elvq/XtjSn71W6IWqJ/T3BdzNKpkK956djotWz982KPamIet2vNLQDcHmuWMWPKsjzanWHd1cb5irdGFOupDFuqOb6sxcrKU01nyUKYsj+zESGuS5hhhuValNpN4oal0ZDLQ6rHR5FOvKINbaINZ21VWBTZCpliJlsLMYVSapN5kYd4mtbnJfAXgAa0HCo8RdVXGpL456eu3Slp7b7etXHjil+5CBGg0WZYS2t3JQhwEooa55BmMIzKFdz1OchxfhCBGFZ4CHH5HDgYKlYYiYcFzf7KjqRFVcKS5L9atITw8K/e7TO/r0Vqq1PNLQOBLdwYQvQz6IFJXO7QTnS1IbMzuY4FKAKvYpC7tOlFalUuU61Sl0V1bokYWOfmSlo7sWU53tRlqOKy3EUrcBCrrhqCpFN8JMeihbXhQqq0pZ1lFJ308DqGsVRaXtStospeu59MJWoW9u5Prubq6XykTrg0RVlMmVlkgzmICYBlBRjWg9TS+ob02DLpbJUuqjwMoRi8JYBSYe6IayQk8tFfqvHlrRo/OxGNIj9HdQrMYOuJvVQ3hPvfELTILnbY5DfQMkui+ec4S6HoOHB+0XcBgOIg2R2YPWMyI9CmDCd5xNaoqkjVGpL20W+oMXh/rr69I2CvwKVuwEJTdRM1NOV8MR0W0xKkNFkKYwduNByER+7YZa3STS6aTQxV6pBxcrPb6Y6JHFTHfPJTbbPZekJjNACn6UkfITL0fVmGbaTfOHMKHBjHuiZkqCr/JK2q5qXc9LXd6t9J2doZ7ZLnVpO9Nzg0Q3ykh5hXkIRmc+9zUNHQcO1QAHoWu1SqLIJfZFteqMBsV8mLQQD/RTpyr94sUFvWU51qk08enV0ObamT/gOtQ5dU09UkaO0Gi4tjwcIJJMgYeAIA2U7TUHJeIAFiInLPfHOWhVtUrt5pE+uVXqn393R1/eSDWyp4xmOjZJyEw1RCQdWl9SlVKaGHjIBz+0yWWKjEWBkQ1iLcYjLae5zWg/dS7TU2c6emAh02lYOprdRuub0Q3WtNDKKjKw6lBm4w8tC7/QeCw/BmjviFBk2iAximyilpwk0M/m1mqtV4We61f65LWhPnGt0PPDRP1hrK06U24TolY9DQmbUR13JRDD2hG+6uApq1JlB6Uo3blUJrl6Za0fX8z1G29c1NtOJVrsMk+Wugy0F5l7KirQkbrG+C4c1Cs/yhx+vCPc3mMMHiKDiHxAQO4D92l/NG597YcHXIdWVESJWfNFKjSIM/311aH+2aUdfWE71lAdJVVmLBlZJYWrVIkJsVQMXMBsGIAIcq0BsFZSFqrTjgnVSVTqbLKtd59J9LNvmNfbzszrzgyd0UiKXIiHllbRTV4DkQBMaBRc8wtgMZDG8T4z2f3F9Q6H5wi5yB90b0yxJBqpiCOtjiJ98dpQf/bqQJ++Uep6Pa8CLoSATjkJz/RKXapELIi7zm1q50BYJcr0apmqJFMJjTRSFO/q7YuFfuvBRf3U2Y5NwMLZOJicDSYr7TxTdspJY6Ds1HvgPjzjIMzN6trAE4ATwBMi5DmRACZ+XAfCtjNz0DXgQWakW6EN9Uel/np9qH/67S19s1hQv2QsARGQNowb++jC2KfLObCgvHS2CnFpdZg81HGqbjnSnd2R3n461j+4d0FvYnIxrdVNEnWYWoRIrVFZuzFSNghImSgv5/DjHc8oK0co+0HltOemP+AK7jqZwiAPWDBSpGFV6UZR6pv9SP/uxW19fiPWy8OsGVUWipmJb7qPvKCrjmx1Bys86iS22XcIQGM0ZSp5V6k0KfVouqX/7tHTes9paa5Do6L8KB/39w4AJdR1KBtlp9yBeVASgBTANKvsEUtv+IiDM5EGwoUISSBEEs6zItv7DCLaUVdaL6TPbJX6Z09v6qu7CxrWuYmLheYa6Lj8ITiNDacbNKEcLBuuSDeJbU4snYtKPbVS6O/c1dOblzPdm8XqZa41NtOqNlJCPkJ2GkJxS3kpN2XkxwFxaXU3I14TXXMKCY5L7Q2iuTVAoU9SpUEZ6ZWh9DcbuT5+pa/PrZe6UXVU26jSpwEQ0g08SaYq8gEEM+6Ah5EmWLVZeg0t1m4S6629XL/+cE/vWEl0OnXrSpeuPIuhcYR6peyUOTQe7ikz90c5LFQbECAvRBqIF85HiTCEcWK58LdTyITj//3Srr6wkwmjdONF1o8wwkGX4WwZ0tC/R6m3emFwBQegguNIvbTUQ51K7zsX6YN3L+ieXqaFhC6J6QOfsd4ziAlZmjpTTojIOTQeAgTiHb/ME9CEhAxONno0hmSjOLTJC0mth+ZjvaFT69H5jt54ZVd/tTrQi3lPW1gTIMFZvoipKZNF0YzU7NoBhD6M7nFYpPrcTik9t6PswQW9eznSHDQMSqAmU6F+LeamrgEL5Q2NJ+T/ZucxxCBk+JiWx/3xCbg/OfQ4Tw8q/cGLu/riRqxccy7CRGhbSptfgl3HUayyLlTVLMRr5rCKWgk3sdRJEy2lfb1zJdIvXJzX3znd01w08H7duozaVitYc9+fjaknlAvAhDJz35Z1oAPvbtdhDKPpymwlB4y+rrQQSY92a93/wLIeP1PoT1/c1mfXam1EC9a4YhOYyYd9YMNx79wnOSvVdQ7Hao060uc3aq1c7uvUw8t6MqmUttQnlJNWGsrNmV+bWUxivvnVWGC+edAjhiBDpmfB1CDR5VGl/+lbG/roeqLtKlJUzHslx0gCpY0s6NPhFlFZqiwHMqIhZNucQaROluqOaKRfuTfSB++Z18VeqgVE56Zp79WXHDGnU8ECWIzAU29u/aYdN6AFqAmtPWaerFQ5qrSTxno5r/Tnl3f0B5cLrWqpme9DWgQ88COE/4Yjz8iWGezHQy1HpT5waqT//vFTekMnVp1g1YgOzHVFMPxxJ9s0kpOU+7aDB2OsUVIpj6T+MNH/dmld//ZqqldHNvg0PQfFN7U7+hvmi+iWaGUoATH8qnJlECqKtZhUeqyb60MPz+mdpyOdSxJ1EzdfYIUDckAgxAx6HvsRFX0SQh4loQAczknmXQUKwKisbbUGSsC1stBn1iP93rcH+kbRsUlSlJZFjHk/HcXBpWU9mdM10l1poZ+/sKt//OBZLXZLZRV20gja0zG0gX2UMrTDjLut9sMTXTdcniEq2dsYVfrLqwN95EqptdyTKVFwNf0KrNzMFzCzYHicZKxNaUiTWKs8nYz01pVYv3RxUe86J82jCbYWxGRpamEPJuWJSnF84FBuk2tCN+ecwfJFqzZw1/RSprtC5oAGcJyU5c6MpNAKl6UQeu/MMr3/XKrlx2L9/kvb+vJGrGtFz1Z4eIkC29hfcqM8muu61louffhKrQfmd/SB8z2tdCMD6FgECrLYychkX90e8CAAN0NVOM6wKPTdrVK/90JfL1TzxnbHpDViU0zTApoVHfodFs6gFaFwWZRpsVPpHcuFfu3BFb1zpasObNs0zXSL/v1+8t0CJU7yaZCLGgARRSgn19AE8ZeH8Ed7ZytPGVECqFqxTY8zPiQEhl+JOon03jsyzXcX1bm0qb/eKHWj6NpQHs7BL8zET2fbTV+RIVm0eKWY079+odCDi7WeTCtTYRjAmo7Q8tiSiabjuvnd7QFPi2Roh5/vV/rjF7f19W0m9BgVsOwNvQMUdYGNS1gmLbFmWJmzDgtlYiJlQ733VKHffOCUfmQpU4bGmeZthu03L9T3LoTD16dH/DptAE4e3E6JOTiYE8rPQkWVq0ANUFRSMTLFJXou6NBuDL241jtPZVp4aEXJpS19eA2FKaqESUM9qJxof+j+Rxrpa7s9/clLOzr94IIenXeju6adH/T5kZ/fEngAABpVE+lY3x3V2q1ifexKqY/dmDeWzcK6abL4cJjhOhOGbq0Xq2OKL2m5U+vvnar0Tx5Z1sNdphUQjANZw/nI5TtCQOMH3vccIzRBAYRphk1Z1+i+ax/9QAsbJRXQJNJGWelGXmptIL2cF1quR3rrmY4uxFlj0TidOGtMs1o2L/dbjy+q+tsd/Ye1VJsFy5lZi4ZRGILwZLgwFqWNTPCyjkbxSH++1tF986Uu3l+omzLlg/abWsErSCj/dPpHubsl8NCiggBGfodxqi/dyPVX13KtF3RXaEkZKVCs6YoH/Y1IYEovhMVz8UjvWs71Gw8u6aFOrMxmlqe7gqMU6uhhmgq2D/bn8bB4+BKBvUCLXfqy5o1K2soHWh/Vuj4odGVQ6bVRobVhpY0qtt8ua+TrTG9dqHTfqUR3H1B3QTbpxZEeTlP95oNLKst1fWaj1GoJMJKp6ZbZeYVLxVovU3382khvOpPpPWdS9YyTu+b/Vqh7a+ABGhGyiOnwtFpV+sPnN/SdftcsAH1WHFlm/2E0oycCfYo1H1f6seVaH3pwSU8sJ8pKiIN8A/hmxbA/zllPqARLoomFdImtPUZrJBN7brIbcgVyAROQ9C61NCwrDavaTDCwr94FMHltRmzXR6WthX95WOl6v9JmEWmrTLRdRNqpOvadTVHYlIFUxKke6owaK4EgAE/nnsZF3uESvTjRE8uF/os3Lir/7lCf2Ky0ZVaVfBtKxPd76UTJUjNWe7of60+f39Aji2d0V4zJCeA51CpqOkMz7m4NPM2CPLK/W0T67I1NfWEj01rJsNyVe/Tns45xMbGnKWP9SDrUL19c0DtWMmVonGOfI3KuNSuGoz5r5ppQsQGkhre7gN/MtGMuETHfE6muYuVRZcb2OwIEka71c13ZLnR5d6SXB7WuDqUbZazdQaXtItZ2lGjIJIvNuI9L5pVp66/8mXXvpt9yzkHV0W3v7dYpmX0xHhFV6ijWO07NaftiotW/3dbf5AvWcNupzVr9WjXzcxtFpM9vdvSZa1v64NllzZuyB7PacWd3VIKOw90aeJpo4A3XSun/vLyr1eIO14ceUf8CGe9IBvrQYz2961ytnjWkaZKMc3uCC/zpEBsKMn5pLuVZYfIZTA3XcpdG0ssAY1TplUGtV3cqvbJTaXVQ68ao1m4daxglKuOOVZgp7chnjQlJYis64BS2rOp1XFuVqdZ7ztbafrSrl7+2o9fSzDx5TKSeQwhUJ1oddfV7L9/QO1YWdU/GWn9q7uTHCcBjVHMhj2UyZazreaG/uN7XtzdX1I8K4zqB/R+UNWJJ61pLaa5fuSe12eB5Jj0bw6/JdxMgeRtl3As38RbjA+CG9ZuCDzi2e3KEctau++LBa/lQd8apFm00FOlGLf0vT2/p69sdrStVn+6qcuMuBkS2HIiwjAxtpNPEHwVbAHgjnRwmDqxIJ7/kwCBrJ3JL78LvVkY6cOT5JNF7Tkf6tQdz/R+XS63BTXVznRccblRH+ubmov5ibVv/4HxP5zN6hdTyj+A/6whKxPCurUA9NnhMX0El1aVyNKXKdKlf6yOv5OpX8ypjZssJNTszIRNQcT7N9e7ThT54z5LOJpUpAMfvxxdURDgmsJhUgr/3NhSprGv1kU2KSht5pWvDWq8OKl0Z1lodRLo2GOi337SsOQynbIZaemUY6yU4DEZnqBLCFIDpcfzOl/0yF1SZUw1KzliQgxC14As2nx8yGzqf1n27LK3HR7xEBgMm57JYP3vPgr61ua1PbkRax+TJRqWzRQSiR76hO47yrv78lU09uZjr7HKKkUIDds7TdRaAw5n5L9QJplJogHZ88NSVTV66OqPSepXrb9YLfXOXVgdw/N9B9KD1GRHiUo90Cv3CvV1d7DIshevQPEMBJoR2qYUhJh4vEpX8atlKhiqPDCxbNZZ7tTYL6crOUN/dHOm7u4x4WM8ubVWpBkWqTiX9k0elsuOWRGbuY2vCoJ0LGRPge174G7P8mVUSTKhSRhuckUfXu/g3KARD/vfVxUEkOfJzM3KvpG4U675epH9035yuPD3U13YxqvMBxoR++6P1FSm1vrUT6yvr0mMLeDlzxaKH9vKELwENvzCJzExAMFUhzJHBM46ICuRfOqdOPdDz60N9+upQW9WiAXfc9lo0bBOUuS9mK+6MR2ZW8ZOnu5qzenN+5b5yXGdCBqmoQsgVtG4UbXC8oa5X0kt9NNmFntsq9PxOpBf6mQ2NGQlh+l5Gc7bqAMAy8YHm1Wa1ca5EJzQWcOFbxN+IrmMAM5J0L2TM+kfWTEvVBXYwlYqEbxzkzs7bhQ5VcPvOlAPmwHlOsd57pqNvnRvo8sulXsWyEHss71z3MhHLBAAfpoXyck6fWN3VO88kenIJ686uKWLDKhXacAANHwZrC8xVAwfi+ZHBQ2CQlya4CUk0yCvtqtDnruX6200mN5EYscyDgAcTsYhqdYpCT52N9IG75zQnhFe8XEAULNfoOgrlUapRnWqnKHRtsKOXB5Eu9yN9dzPXpc1Cr+zW2lJHQ3U1qnvKI7S3aFC9+8CCMEd4rRmnmH7X4qaSAeRRDvzmYHyO/TTEhHBMKXBdYDhlNtRO6KPEd6th3FzVOTfce6mq9f67e3p6q6+PXI81SlmqfVAqDBh4l5v15jd3E332+kiPL84rrrC7HI4/hEaY5YRuinqnzBxwoWDCcVPwtBFoH9PqMMJWrqt5qi9vDLSuriIs35hmGIOnEWIDlEyypyXjs2+gv3thUff06MHzsXgZdBZ1nei1Qa4/eWnXusTrRaTtKtFWIfXLRIMy1RBhdswhqED6+2blZ2N6mpoThCCpwlvgR43hWdPTQxK4h5PGZQd3MecQQ5CsCuyNbObNtN0VgiZyHxyOtFr5GNfALV6EyjKwNzP9aNoD7JkGou98oNPV+y5U+srOSJeH8w0NYB30q1gIeEb8xF9ffbFWJPrs2lAfuCDdndVKUI3QQPDkik1Vszo0dFnEEiwMeQawDgVPQBkfEhnsqypIAKEx1rd3Sj077GiHUQbGfmPg2BdN9ViVGq8l63E90LvORHrzqdgs6vCk1ZTPSsk1dilrea3/91qpz23F1m1BNiALUdCnoN21VAJ1LBa4yuRox2uENJ7TDkFY4vQ8wvlsrRSWjGa/i9VrrApje8Qhui30Js0cGw0FghMj4V+PgzrgB+1DGpaS5TnRfFbqLadSvf30UK++UipH+2f2VGEI0c4X1z753FeqS4NS39wY6cLZVIwVGGzQ8XEAjpC202JiaRiAfaCGCNYEuyICAo8zniTKYwzLY33q+kBXyg6DVDNV8mT3k9BsdJoGeibd1T+8e0EXu0gYRcvUYPo7FtYNNKdcXZel6M5YH86SGbyITge/xTuU/XAaFD9u0+wE8kwnTbeFETpzdSjeAHBOJTWLA28xAzM/h/bUAXUR6mES0FTExk3v6hT6OUas8bav9zI4+9KiSfj2lcuEV8o58662Uxcalba+0BgDdQ14gqzDNYJyOLjnmAIPBAtoC6aoAWWhEA6kTFfyUp+6Vmkrh316TFj+W9eDRGfSnScHTCjPUoSsk+hN827QpTpVFfviwpAxay+1zJk23UxUF0qRL0p3NwsHKKvcBGdLwlgCbOH4cDLpJ6qVWn6Zk/CheqioKlQcUQMUBA1Lzzs6ygsBj59yKO3sMzQ2+apZ2UF30a4PqxM0nLhmqRLNZV29eSHSj59NtBiNzKaZZdbuQmZ/GjYxWlfaGRX61LVcr4wqFSYsMTjwRQGBcQSgBO4zZiJN2S12MgTRyPRe1PHOMtyws75QNhVaredU2gzt3q5gOsO06kS5VtKRfu78opbwAuGd0Lhrm/6CGrG1lbbchPkZfv6WyNQAACAASURBVBVmGyWVDYJGbjVnrWzf10d6gAyIu5TKvJr6J7i3DQSblCpSlHbNXOSowvaRMjAjEHXAqCZUFqAJwOHM+/bh5iCxlmMWBMxpIWWZkls4tF23tL9xfRHCf2l1+LcbAwMSYUJdkw6cB+AGWacdB9dxOzDACREEhHHPdWBhXO8W0hev72rX5mbgNvbZAX982M0S4Ht7pd56tmNmpLQKY1R7577oy9EF2XgRATtwQ6rNWIBNCWCBZ+Z5gMc4x6SqD8jI+DEhTSdc0TW7MIwKYaxmgIjYIVn35MVDcDbp5tCyjpM48kWgc2i4oZGG+xBR0K+E9+E5yj809axXf9vpjh7oFuo0+W5zf8IbhWoWGVaqy9wKtqNYX14bWJ3CkZLYARPiD/kL9+2zdVtkKCC6nekAmCkE4kenqPWVLfQtrrk8sNo8tzYCO53Ueu/5ju7IInUmA7Epph8Ig4lDWVK9yKa+RMY0u+iuuUcoTDqKYt/3oV2gI11TXpSdJs8BVuQ6fJXEZg5rKTfgwQuYdbuO9FAFR0rmsEABg5TZlhK35Bo4X+i2QsMNdRC4YoibBsU/uPH5rNJ7z/dMW28TnmOXwd4gabBooq3RWfdfqigLfWULtYfvx0GjbKdF+gcBaCzzwJrIGATlRwTctzNLJPineaWs9N3drhm0WHuEsAceTANUutgr9J6zPRvWmkXhjPAQssgLX2Lc6BVsiNwsf45QypnrOdZduJB+IHBnxB8ehW9SHGJmvi6ftQlor20lpo2osID0dGYblYTYTnqeaG+DfEFMASzQnet2t8F9uz7aKVMPrE59z+mO7u0Vdo2wEA5qCD2PLYFuGqD1CXml53a7uorIYiM1y4WlQ3qHHXHIUOiyOp3OGEAh8zHrmExAimwvh+9s7Gqz6DgfrLNDhFVbG2zyDna0D84jxOG93bsAwMIvcDuIyGFdFvqT0GWhm0EVYO0ePYQvfnNrvcOKN/sdvRyKQ1ZrIB8kMR463HANy7oqxWLaPbOj/DQF6OyojvTUzT8cjGjnGWWaXML8IMo4pkcaWlAPoS7CM+oh/EiQ672HjRXjTA/NZ3rjIsuWh3t7LTdeY8iPkRLr6OGqZaHtMtV3NofaoVXROK3b4yY0s72p+f2Y88Bp+JGxgPqQyTFqa9lmH99Yr1SyQ54ZatEuZyTi6hNzYHA2q/TEQqplQNMa9pOFwOkCcWy1KIq5BjhodOk6EFgRkmakNLtkhz21EXgkGgVljc159qRCQqUdFsVJ3zEtAtG9m/Quh/Q4QiPiOnCcgzjNrPThmuy+89hCqpW0mFKituXSEnd4toQ5UZ3iZCLRtzZyree1yU8mdBpTGMNjVnKToXqoPM5k3IDTAMDle5dBXhvWeq5vxbcJTkh+UJX6gLbW3VmpRxY7Ss0vTSMRN8SC27TThowmXlhrg8N4V4JehZ+Re0bLm1m6Ax4SB4el22h48C94E8n/gNiO8tjHaFANawTmxkzGb0avgIa8ABRoHxrYcYBDiRAHsijSI4up7s4Y0cK9m/y15ExGW9YQbU8w1sJLz+5GujbihU/mIDzfjB77oBUKwZmDtAFBgTV+HOmlYaXVAg/lrGhgZYCr16ZIaC0JgtXKqlpvnE/NsRJlMYHNWp7rMvhuzKoBbpaZppNVo2zjaP4ACW90cKWd52wqxePd2ADRW73nKMhQTjAD1S0CdDpDjCxdxcDwmIWO1iUjpzQjWdIMgipnjuPmI0FejWXbNj28ECtpdtUxTmJFa1HOVFZ43IjNWmA1z/TyLj0K4KE3QREbkDddmnC3DzzhBWcqDCEL33roDPI60tVdvHr5/Ih3qnsTQNHGyAWpoVSnLvWjpzo6mzbrz5sEaF2hqwx9PK7TwjMEZVpEmIZo5+uH8Zr2BIehjFY2uA3tvLW/WGiwcJxwfZyyspoClcK5TqQfOZUpNqWn14VLjNOxGZTAcSRtjmK9OhypUG4MwbTttwIeR55XIuupMMZYG5UaVlyhuGOOq8UPG8BhtWY6kZpNzSrdvZhpkSXCENC16saiQ18Pq4awNloWXlW95Tksm9IZG50u/A/LHeWwkQ3jB2blGdXYrspQ2IVhaBBAcxLgGC3o6lVrMU10YbGj5TiMupr6sGE6lURoz5W5r4sw1C+1OqzNWP+odD2U87QjQUewmZdazSuNxnYwXr3tvjE84UwLu6NTWEvwUeD07BfECpwGgoVvg0zi6bdYbTtDP4TXlI9GiGAbmfzHAKIp5W3oJmnHRIfO586OdKrn3aWnEKgbCGe5CTfsKaTreaRtLM4QJRjd3oT0RwSPZ2Ir9y0X3bsnSfD5dAo+n+IZZVzxhrlSy0xHmJzhojdfAJZ2S7OWdxsIOKbGD+QFw3W3qUb1QRd2O4uMEA6P4bwc1zo/xyTQdBVPIGS10NQfDTfWjULaKoKXk5sTcDrmfeGdDSJ5owZnvdJ2TjKGBLcN2ZO5hidaTNj93DWHrbJ9MdPFGQEB0vi3D477MvXD98C6E1dTeOapuIb01PRtOugCoTQx49jpbjaCYzRpSeAAweUbb+/kAfEg/CLrWbbQM8UoHImJMAcfh9rzhM9IG/tXjLEG6PHCXgkz4w6bo5l6RnemkTozw4XY/+P5dlGAboadc9Ch9hh1dZm3Q1RgaAWkpidVp9KNE9vVeWtiUDj1etbNoeABNGQI1gqq2Uq6b+nzkPkgj9Kw0ea/llHXadzRTcyT+qzE9z+jaZiobS1zvFy5HXf4qEk73N78TC69I0fxaAKsFcAFBdcC0zCOHfHBSY8bzfjClYONrpwP4bhjYe/gmI74hh7Cy+ByD44wCyUFprltQ/f90VHsYVlrE/MX1sI3HPGwrulQ8JBEICVsbKOsNQpLLpvuxd63KtfDO7HQ6ZyZS4Tv6aMcfEvhGem7eSdPDsj+Cdi9w9KVncY9SYtJURqCGVW6QXsY2PlYqMn5GFR8dJTSEKYJ6ESxj8yawOQSz82Rozpqkk04lIVnu6yoyFWhLUYaIrFWXqajjKxu11msxpgtFPPA8McwgE9ZqF+wbpvKBMfEiqwynZ+QP4bhcVVopZPZuujpjB58x3yVTZxGsN5SC0yGtmaHxxVyGAueFb0RoRTej8mz2brYUt9KvYTFdA4f89rRpOfgcUEh8EOr7MmfWSk1zwhkAY2ZIT/YYILpGdWaa7bHPrgyD4n6Zq9Y3xVFWkbHauYt7uP5sM/IX17F2ixbko41mLas1nDKJqJDOQ96HAcHwUoNikhlVbiBFko8NJjY9ZqTbucQJpRRsThAiPBe2vFlLg1XOawAwBDrQXQPyyr1lsWRlhNfCzb5jnRcDzR5dvMr6ACX6dUDzaUsHQorIQq9db7WmXikvtxfjis/vYkYAEx4dGdM9jRhxARPPIArjrMDYhESPRx3NjFa1nrzIlsAWM3aZOT4k1u4sFRozBjoRZG6Gb6NsN/hDf6PrAUFTE+nVOW2Fm6Qu2KY/UEANu590cExjdTWRfHxoeCZit3MExuWFiY309hXFiQ+BJ0KLwmXTizq8Pa39+2seyZE3QH1/d1Cv/XGrm1/HcDi3A4UHCL4zYrWnkXukaNa0Cm0ukyvxLWWOrH+64fO2G7tk1ibHNsJ5SV20xiFJ257g5PvbhYc0x+YovcTewDmE9pmvDUfN9skHBzDyd4Y9440F7OZCbP4aJ4b4BwQo5mfmMuYCRVMNjRrA5+oZSYgjIqJ5qbggdW6JriyjTeQRdg0hIiZ2seHMowYrxaYpAagcGZdRGoG4gfkeN9juqyh0TxJujpl3Aoj82DhSPyAh9g9pZDevqj2PmiWFltfXiML0LLYJ4ItGVmIOPRtC2hpzeInbJZ9Vh9vZdakVZVwXxhupZj9MPgX5IN2mlZX/MEkdPIiKhk+542+J9gZtwJMgp74yvJktAe4LusgDlgqTVc0jrzJHG+pSd+8pVaF7IOZdGMuAvdpcyBAdDh4WmDFRKKomslQUrbpBJSHbovCfdzseTD+jItj0aX1Qcxojo99NESSYVKV2mhIYTQ4ShKWJ2t9yB7ehzoUXWhzVyMQmz7e0wU4pRneN+U1i0NfjmMIQlNM47B/4+qYvrCE7Y89J2r39N4I6641m/7mVu+a5KyY1tjaEfJ0BsWaFmDfUO6isklbZL0w9whgYCTc04UdCh4+tMDIOVGtjCUomEvSL4LUGJsYX4lIOCKfMD2fzzHDrlmZbZdnfI0swUy9r5XaquF2rt1uYAQp7PB2EqSJcQQHXoTvkjLWSlaqaGQ1JJLtUawqxx0cLIQW5/28E6tUMRjaei1MYgGea8alYsiyY5+G2V8doIQftjPNCA8MWi+WqhcVWogqM6E4MNPNi0Dbm4Vrv6fujPYutLZfzbw2c45muybcziAzAZK68VrCNBKACeAhkgPBQyBYdME6KTM2rzWXJupSCwheuOxknsYIHvJjL63DonWxrgmPWrYY0LqaEG72GUBgZUev8fSw0h9f3tRz25iesiUhFcH6JfpdnuHwwMFzk+58nBicq1vu6r/90Tt0X5KZ59FBket3n93Us/1IA9okxKp8TwYqH86C21sbAyTIY02vOY71kIuxbNZAy7oMZq07emKp0n9277weQps31eQ8PujPQQXSXQRh9ZDUxq8stbrWiLV3tvkST9zJJRQz/DpPt7+2jp/RcZmbb0icOcTNOi0GRe35xzAfSWIzwUPG3STU2ZR7hsDpZK1mwtsKZM2uyXIobMAIRGY58E4+VFWbK4Nx4Q66sH63iWC3qvSV7VRf2cxskQ4jBSYTWVaMcTx7Uzh4ANVBMbaeN+Ylc2WkX2f5Oc6eBGeTvroT6aubqfrsWowZpi1Pxxd07DIPFi4YraE8x857Dyfdz3WadM3vdCsPobNF71IW+pk3RIq6jEzbYfwawExo6tsbhBUU+0NPP4HrFKzLKt2ZOm19RhL2zPoKM8cFDJE6iAts01nS20y+AjTkhx8cmWMMnpBRMk1A6+eaNd+07Fy5FmP2MmCLoa7b2rSyNEmGK79DuN4eUZDpwh18hzxCC6H3KJQXqRg68jnmm2ZNGOQQXBnbzi6T9A6O19/Q4kp2l7H8uRMqRhmDola/ls3dsS5MdWYjMyMUxvBm02vIMbdze8FD7JPyt3PhT8m/c0cznrb4d3E4ELTpDZcJXwbgBBmD5zyjTuACofJC+HC2dJobllJu5YVKkx39Ie9t5p0isVbN3PfBINyraxbVtgnMqCqV0VIiLBsntkV7050CDxkMB5kM9sSQAOfcK0lknIf9ribZaS4bNJJBF3JxtBTp+qi2PTmD3AZHOugIr+i8WK9FS7CBD90msZplnMsYJqDbige0wuHLg2K2r22uBe7FERbz+yCA9lc5ZynYS90JRhhgAbcJ83mktZeIh6XafgeA0GQBWKODiUU+Cx7CUQdBpwJ4Xe7w1s41abvMtb/MY5DakFtaHbAtZTMsMF1VA3LzJuJLcKqK+HxU2YmlFbY1YBDAzt+d5FB1xBg8bWSHgthcOMM1vGemiU53pE5cmJmohdmf/2bA55pItLhXR4Vt5hriPMrZJHyAzGx0LLH3FEQLP2OhYMDCYOc8IyN7E3JUTz2lK7LuCIhY/L5OzIButtxspGYqHjPK5OObzzVPJXHkG+jPj3xwuNjg+aK81pgb+Yf7Qw8cX1XSlZzNX1wdAHBNJxm5Zajt02qkMws1iw7wnM3wQO97e9go8hDSpqA7ZJpMhaWtZLaG+1jf555NF7tsHYgs02gt2xXSJGITjI0nUzK+OmSHOy+qj5BmF9y6CEZrttzW9TqWL7gQcgg7/CLt+8IVt2A0TfMhpZtF4cAhMQmNWDGSKS+2FJU91Xj7SGrVOYMEJhLhap5f8+s0K75jPgOMVKJtvGb6IUQEX0YMcKADtAc83FMn/LhGaA7gmpWs6eQaffaoqqzhusUn20kx4VmZ8zvjf802URHDLPb9QPueSSsdluSwjbLvRDQrnfDMKNPOEBkNFQmdsbG1QtSJljJ20YW+EztlG9p6h25xmmNEiAPLVaGX+6V2byL0kB4/CIZ0b4o5pP+GmEGXBAYRki0N66qOCZxQajgNBGqAZOXHdJZ8wIFYt4VwfqTusBXpMS4t580iRz4jbY5QF+164Lr9zm5m/CFOZBxmxHerWi8PvHtGVeDDxWbiuZFlaZS+Ua85NdSpXqIF2I852bIUZ6QyeTQFHhCPRB8qE7ZF6zQi15GW0kincQRkKyfgDmSKQk9YULhCjVeo1JUhvozN+WyTKp1S81UDGjgMB2eWAdv7BkweNlKM29ggK7TSmxTlBFc0Oluvlvmyd9Nf+1SLC8UnB+fBuQGSLm9AZ1/27MCl/G0Zh7yFI4Aq3M86uzxJ7GxXUOu1XZflQlgGHKyLMNGRHYbYRMVoiXeMUqcyabERZGwSN3x4wDkNmQoZpUBc89xJB2+lRbrzw3NZpLSuTBi2Pb73coCG3jQknEBdH8Zaw4WHDa+ZFkBd33C3Ro9B3kiPFmaOB2x9OK0GojLUSq0b8YKOGcYBRTraY2sYAAfRiv0faHCmubbMvG48x3TjFctaaHxs3IJqwAVhch44EF0UR6ifo5UKY7BEw7q23ZTXBs5JTXak+zWPbkFRSeRSErvfnUylzqQwCPgJ1AlN/OCUnR+23pPZkPHwOETTlXRHFmvO1vbA8jxDPnQIoSdn4toqO3phq9KOGWBN3oEKuilkrDaBwkiHMzIOw2Q4DgPr1+MwLsvwn41ArOt6PVLxOGlXaYHy1SdEaRjGbRtBmUYbOD9ftOlytFyRAi74Kr2wnQvvX7O6Xrp+/wVnoYkpB8/2YnWbLu0o6e0DT/jIMo5MYP/DLHSqO+cSLXVwTUZXhIaZLnJSse5p3aZExf6XLGX9+sZIq7ZKEvbom4nZcluI2TgusmEowmGWur+cpBFYjbUiZDYsLWTwFs60q0n5mqVF5lLOJzlvIeqZn0Irkx/pmmOuUT76NpedLBP+AQAxeYL7HlUZuDcxdrKhh1gbjvSdGyONcBRqqzRMhzwOTqUH/sJ7/FGfzqS7e3i0ZzxpSrTxHmrjD/dcHAie6XAwsdhWf17opXpDOlKJixNbsIEUPwGPoY3KQehiJjuO9GyffRsqs69lSQehA6Ha6diz8QpKL55LQ+1Qt+G6weEsOM56dusp+mQsAKLrpZxtkgEYuA5n3vE7yYHhelrGeqkvPdMvzaFEqI/Z8cGX6NpKnc+GutCN1TUAOgi9pmZ/ydMjggevnyCy1vlerfvn3Cegu30je7OjMRJE0ktlrO/sjMzvKewSJhIIxBnuY329UdSX3Yb3r1NvdTBFXqc3PrTwwiOoMoq1BYBNetBgXOYT5IEGScPM61rP7BS6XCBfHhyRNWBGtKYIrXXffKU7kUvoSuGMJuce/D1vZtf61DeMu33swXTDqU6iJ87OKapGShkdMXSeCt/cgBxbwlFrvR/r6e1CG3U5LhCEorVBtNDqDIawbmjsy0fDaHpWCj80z6gofgwAoigVVkTWXdjA4eScpk0AI7ci3aiGenp7qK1RZi4c2mHG12Yh6PWWocmvIj1xdl7L3dhkvzHQxx/MvjgCePxDUMxvKY700FKmU7bHBGvWGa4cAnHr5+f13E6iS7uMBjyeNkcJ3Ae2/f/nAyrhxDysIQjd1O0pc62kGun5gXRpt6s86qicsv3enwo9AIqR+U6uRxe7WrRWiwbaO7v9X0w/OXJtgWx+7DBxT5rogblCJZNmphCcjnTvHTYzzw8Sfer6jntlNz/GhwNubxw/1PcQrjlMAWJFbx6OzTZCiJOdDZi19InrIz2/C3c7pE2b2EB92j4Keniu1t2p1GnUM6Gub5aTI4MnRITkcyqN9ORSWMzXokwItO9c60YR6xPXSq0yy25KwaN8ty+iH9oHobThfLS2ffTiYgxwNZc+sTrQeuEa/kla++PhHeBhJ+m3LEmnMpdcD/tmbyzHBg+sbr4jve2OOS2iy2yW4uyNePqe9V7SpUGiL62NNCytdNNB/uPdLVFgUNX60o2Rnhuk1jhti82bxIgYwr5jbz/b08IJJu+ODR6QuRBH+tGzSzqXDpQi9B20FMbYMwpxVkWk6o8SfeTVvjZNR2TCUFv0uUlRv7+vw2iQs7nZb4+1v+dZQ/PuNt6oQ5iovlHW+vAruxqOUtv0hdFxWHWyN3v+rdkW6g3ptt58OhMb5d3soOxGhybgscHDd8Dlzmik95yudTqdmBEcmHhUmJC4VWf61Fqtr23H2mU/BzyYG+c68MsfqBesA0eYZMvq7+9BRWOchqPRUoM81ze3Kn3+eqwbNFSTo8Lc4/6conLBynMhk3nkP5v48rv9If0JgGmbiIRwxwIPkWAOylZC3bLSu891dTbZMSkfFmI05Q99Gz8OM0IyC2RTWq1pXv/u8rZeMb+GzKH50hQPHiLhQ/iVjdldoWYTpmFSFe024wTCE8aT4uzDTIb6zc/y0IyVidHy14RvnSy3/Alx7XmHO2DTvLLvBQbisxUUra++B5cR24wkemkgffjyltarOaO377Xuy4ImuWgKDuc0rXKl852R3n1HTz3TKrvCsF1+6rs9WWtWD415LO+OBR4yUlWFraCI41RPLKe6vzNSry7M8s+nHBrQWK65JokGCI1O+nPrkf5mo9ROwVIeWogf43pjtjuutMRy4zRSN8aM23faM222BfStKn1Fpq9upObDP0dBG4yNiDpOJKS6N/HJc4CGXECacFufIGZuyss7E2mTz1+3K4NBM1m9XdT68kalz21g7cksvJurTZYShfI1jQydXV2rF+V6Yy/XoytsFelr2WlxpnFuuqcAHmJArRDAEwo2tiQMDw46BwSy2A2Oifni+azWW8909Y2Nga5UiYqUDDpYZseDKrzW5WGmj1/t602n5vQmjJEaQ3HjNAAtKmwfzb93jrXuO7qym2ttKG1WXduIkpEFjhhZiIypq/uHLIztYELpMGlAXKOQ891pVOElcWLmMCuPRrzmhQFmvH2SG8HzytLArsHMVWbF8vo+C80TLvv8MNfHr4z0ygi7cuakHED7czD5CvCdyXK962xHFzosBJjUWWhbAAXA8GPeMZjAhjPPjwSeMPPLWazebIy0MCV/z7mOvrBW6ZUbAIPo4CRMYPmk6nQhIrFiskhSfWpjqEde2tUDD69ovordRoj1Tc1W1heyrn7t3ky/LHblTbRRStdHuV4ZYmBW2LbVr+wOdWWY6tpIujEqtVEBpszYMp0MS37wT2NdjK0OxXpwOkeQDe5irbmBnbVAYzQYpjX2RYRr9FNj7mZ2TVRW4KxcBvJPp3Ord3ABGp5Vs3XViQZRoY++sqnPbKcqkq4Stl0wsqPJnk4ROQg5J6661jjfvBTp3We66rKCJB7ZvCOfBG5jdU1xGutOYmMmgPcA6KbgCQH5MEwnYJdDU2cbelaIPrCQ6Knzlb64lWuNlQl7Mj1dhCAKFbpe9/SX10d607mhfuLsnNijLm4RHi1s6n6tlEal5jPpzizVwz0pX440iGL1y57KqtagTrRVRbqel7raL3Rlt9BrO2wvWeh6OadNPJqVtfpoK+2ggqcz6vJT87bKx84ZqIXQ2uytraTgW/c8QccLs5+OzeO5HX9DZVrFNQIJud+Jav2HtaE+tpporeoqYX1d4KqHZAaB/1Q20E+cS3XfnPFWdbCNZtTWbIEZ6ppyc5AHwEIewj3nAznPFLehYpsZ35i5mRKPCWzYmmpZ0pOnpUeXd/TZ9cY7qiUx+w9mnmS5qmJdGnb0Jy/2df9Cpvs7Ug8NJ92eLdSnWpwKCIDIp+ytwA8B7xQ2tpn374SD0+Dqd7Aca1Bm2qmk7VJayyvjSjdGlTZGtTZHtc6YfS5VUPmqYbzz1Jid+BweArE7P3PuCTQgbIxRGi2xadYI5XRzbtjFFflpz/Q5yGZT4vCnVFgATuAC7DqIcwbsk58fVfqTF7f1/HDe185T8WPN8f64yQm0g/ZPLBR6cqWrJToIClqVZrjHRC3A4eBMnQMgQMOPew7yxTEFnpBhPrQ9ERp7Zj4KBeAjIkJ7g9EZIssD84nef1dXX9kaaFh3zVXHQU0R8oYWgi+YT65FevylHf3SxUx3djIxnUcDC8Dx/sSlfst8Y7iNxwrKQlm92txJNqta26XKvbwNUFjBmqiXMPqbLKW90ANgtTZqaRd5aoQLltQ8ZVFOzErQ7bAEB2eeDhoWDtJBs/UQXRvmqw4+o6z9QQa8uSH5JLxfBdBwDpVo9ZF2zWBttaj0Zy9t69Pr+NMhzGS+zKt+b4y0R7yEFJrLCn3wrp7u67IlJs2n0rDphnzAM8kDVwEw4cyzALAxeEKGQRrGSBwAhoA8431AX/iYMJgBnO7E+vtnu/rw8rqeWZ/XTg2R9xLSomz98Rn5NfX0L58f6P5F6afvqLUSKhsdBv0rJptMwTQ73wSCItAdxWgqGw/mEPAYuTEf59yB9sMEL65crg5LXd4u9Eq/1NXtUldHua70S/MQuhtnGiS4ZqOFwuLDOIslz2x5S4tmRYmb2LYKeexLaE7ZKG+gPc8o96geabdM9OnrhX7/hVLr8dIMwM5OEomAic/Hljb1U2fO2hQTHAxuFtLhS9LiR/qhvmfHSONp0M05fERkwcKPD4mE9/xAID9nXC45kLGzcaIPXVzS/7zd107RcSs0EzAPSJq9rexVrWt1T//imb4Wonn95J2luoyOqHQqySral+SQPw5Lv8lPyP8BqXgGm5dwKBfo/UFV1sqLSPfPzeveuVxvWaiUD+l6U+2mkfpVra1KujYqdKU/0qs7I70yiG050WohbQ9G2qhK7TLSrLHCw0G3L+gj3y7CUQj4gVssuvMBymF9nq8QAY1NdxDqIZSR71jpgTw4qCLbE/T3nulrVQu2mexsTmOE8zTtr0n/OpsU+tDFeZ3B21qZK068ayJtGARpUtfQuV3XIruAwwAAFqlJREFUTq39f80AnsDtX6gQAESkAUzhOdGQ6QAgWANrfp46u6BPnN7Q5o1C6xXz70c52P880jeLef3+5b4WupHetuSaXNKlQIHzcR2ecW7n5ygphfySdyNQxVbZheIyYut0RRkbwSXmSuZM1jEOg+RVzCcaLbEdNw498ZYu6y76o0o3CgT1WleHtV4d5FodFtrMpa0y1naRarssbI8yuj+oFqNtN9viJsdWz95wQxmowCA20MTw6FOksb68OdQfXd7VN6p55UrNbZ+xZfuwBSNTl6BKoAXSXcU6k+Z68txI7zl1Sh0zM/Vdoui2OKhraBKuOUPjww7rtgLKOFNRRBIMsUMFEdGsyNwPku+HdT6N9Z9fnNeLw4G+tOsEwc459ER7M0Jl+lgl1m4d6yubif7Vd9fVe2BZjy/HwukJzpcATZuVh4Lx/DhHIAVl8nLhX4cFdqUyk6EAD/INLkZ8ZQNuFiw9M591IQtGYkJ6HamoanOWwDqpG1Wmfl5rbSRdH5a6OgBQI60VpTaLSJtFbG76AdbpzNUG7UYb6Eu5fBtM3KvhK1D61nap33tuW1/c6WgXU1GHov31pryXEuPSmoe2R3q1fvHeRZ3JIpteqUt3GMEQHuCEgzwcla72VWBVfBi4jRFsbE8cMhKSaM6NPxfuikjqVLXettzVT50t9Oww13VzoYaMMWMoa6VnhOB7ZGZVqjX6842OkufW9RuPr+ihxF2jueLP0zxqwfbkdN8t8ThXZf2SyzGUksbWCcte7CvnV4wSQyXRHTlFGPnJnGGuJJUuwFmyjsoFJiu9YdTVvHbrQpuF79txpZCujGotR+wN4XNGviLWHUyQL4CNTgnBfFRF+k5R63cubeoTW11tlMijOAViHbrnY2/t2IIEhHmWGie5TndKve+ORO9cTJVhjYdRA9wGNzUmHzh5wMFxjgnkGtmGj/d2EwdFSAYgEmMOth/kwGHRz7wh1XO72/qjqwvmD4/9FibsdRIblcCWSiwPtD3LzTFCqn9/vavi25v69YvL+tHlyvwassIgtMxJDCe/sgpq5DcqLHQTpHHcdCi6uf6FhtHIZB1mltC252mkhSrWUsrqBOnNI/wWMRBxYTVngrj2aoALQXsqEZd1RR3p21ulfueFbX3kRqSq6JnZr3dHRyt7UqV6/x2b+ukLS5pjdFz4yg3fisqdkgZaHC3GSagxeNot+sgV5XjxzselQ2PnD8x19fP3Sc/ubOtLg54tpfE1Xu5rh+Rhl7YAkN2FO6nyujJP8Wh0C3X1yRuJ6nxTv/rQit55rmMWjKn5FWREw1xWKpb52NGkPSnW4Vd7AULZKTPHcYBjqRsN0Nw6MehoTT42ruBugYnTXdUlylNGkLUy21zXNUN5MbSNcW2bhsZ1HRt/f3Gr0L98dluf3EwNOIgIFBl1wawOG7Iw+oW12JxcGuvJ7q7+4T1LuthNbSBgKhpTintvkEYnN7wfg6dN7uMQsP2dEV/IS9Kb5lL98r1drT63rSvDRQ1xFYc+gvXvPj1mij++qfH7F1zSsW7LNMKpvrDdU/ncwPwD//jpRFHKVAMW/1SU6YRnMbS9WTrS/a2U2csdkvFuzu5cx2jdEB3FeEdlvKVR/Q3oE6Z1QIWN1ErtlrU+szrUH75Y6AvbmTZK91lEkAajIbGpMymbDBrh6aLS3fGmPnRxQQ8t4tKY5HytWFuIuJVyzwTPVI6OeePDYWm+F+mnz8/rud2B/s2rla7kvEG2MIYu38c8ck8ccB+GiPxYFCdY/5xW644+sV3q+tM72npoTu88E+lchj8/4nCNqgvcx8zk6xg86JAAi8tJk8Rw4IBzbTgHrl3iLLFNYuGgeYl5rkxO/PyNWv/ymb6+Xs6ZGgCZERkn7DY0ZvhN1AGuTOlgQUhDPJtW+rnz0k+fn9NylltTw6zEwTeLb03yedSraHcXneptPFijjnMh8lfjYKjS//DtDX30RqwdpOpyQVXig1UKWuEds/lG5kKFBliYBy/UjNCNaYM74y396sVMP3v3ou7vpVpmLiYOk1UMhWjJPtS8jaW5rVEhW5hJSxU3jrPUKGRTbde1Xhjl+shLm/r95xOtqmNWA6ELJCNTnVXzwv0ru+LTJkWjkU5FpT5wutRvP76iezJcpvikSejdbzICP3KZbzt4TLPAKMzkGlfufW230j/97pb+4nqift0zl22x8Ve0H3hqqFQXuSIcHDAVQr9u3VOwp2HKItJKtqMfP1Xo5y8u6O+entdSjTUiKLVOXObO6shF/94HRN4wP0NxZj55inJk6/H7UaxPrOf64+d39Kn1WOt40TFf0Z7H0FXdDDyMspaqod53R61//PCS/hOGgrjEsUEJcTUd1l7WdUJS3PZuywZ7DDTgZ0xpsNtuV/rFe3paG+3oc1suEOMXBmfZrgeKhU8cnx/yeRggZQdxNfFtFF19aj3Tq4OBvn16pA/eM6f7O4nmMrSj7gIXFl97x39Ckrx+n9HiU6S2eGAarN0603P9Uh97dVMfv5bo0qCnLVvUhTJ0rA9o1AKtfLnC2LognJ6bKoQBRDzUW1Yq/cJ9C3qEuSuzNfHZUuM6twk0ISe3nfOEiO2M9tR6r0rspvKF9UK/851tfWEwZ9paEyLVPdTv3VR8pjeqlUWlzkWF3r1S6ycvdPRjK4nu6hWaT1gvS/sk1dtMqamMnPyGebDdcqiXBrG+vF7pY1eH+tyWtFZ0TR4c5zv0MbOSMqK6dJnWA+PUvTjSW+aG+o1Hl/SOpUgrHbqyKV41K6Zbeva6ggfuQxUy/cCk4e6o0GduFPofv7Olp/NFDQtGEUxXHm2JIjYn2K2YZWAUmR3KxU6lt58u9Z/et6DHFhOdZqoEW6Aw0mlA9L2GUsM3XbBHH1ZLg7I2o7av75T68OUdfXYz0sujREXUVWymvKELBvshhv31a9gxrx44/ayUJbke7vb1248s690rsRY6qAt8UAHzeb2O1xU840ybcQz6GZxhpvqrawP9r5cG+vwOph49xUwsJj77wwoFDuTffUcjJGKDCxhz6yMTWzN/h3b1nrORPnChq7ee6ejODrPc7BOOeSaWishPbqkIpE0Pgt7I7HOmU5qVdAhhFdfckA9y69nyN+wwgy2x2/yUSm0n6EhXR5W+vDbSn7420OevSWvVvLmfQbpLi9QGGCbzh4Rmnc0JgXNz6ITntW480LsWS/3mgwt66nxHPdKzoT90kQ1OZkV1O559j8ADYX3kVCal+oNCn1+X/vmlLX1yp6OyggNRZW7cRcFmcooGPLwPjupsxGZmBdJp7Wo+qXTffKGfONfVe8529PB8ppXG9gi7HGKeDPNdviLlqQY6M/EWuceBaxUmX2HXRCzuViaqMEyrtF6NdKlf2xLgT64O9ELeUb8fayNyeyh3R0ZuvAtCJjosaZ/mJAyyZKluWeitK4X+m4eW9NRyrIXU/epY9ojLyH5YjK0yneDylsDD0JPj6IomVxJSqLW80Jc3a/3hCzv6+Ab7W/reD2iP0bu60djBJQr1R+tngI6rOlo5msdOkuh0Uuq+Xq43LlZ6bDHVIwup7ppPdEcaaTHzTTcMSiaMTwjMlZt27SmXyW+eqv/F5AJDMXdJgtYYU9c17IL6pZ7eGek7W4We7Xf0/C422JFG5psRrhTWupHaBLqTXLTQ3HpYRex1hp1PrMV0Vz+5UuqXLi7ox5ZTrTS78iDnGBTH340vDibmEd4wdUI9t+v6ROABNPzCPMzeSA/NC9/hNFqV2RQ/06/0u8+s69NbPd0YxbLlXCgSD7MFaiVgmp1GtgomoGhvIRldW6KRTmWl7soqPTIf64mVVBeXO7oji7QUV5rD7zBOkSK2R2AbIHfxYjwQTmXgwr4IP4zsw4khOTtklBqWMm3wZo3NT6QXtks9szbSM/2RLpeJtkZd984Fb7Fu0216mJvyVbYAB/iEptAqGM94bHXvAMASsIsCMKv07tMD/ZcPLunRbqq5DgHdWxvp3C49TmAOoa6ZxuEXAHRs8BBRMCMIkTMT354ba5Ng7zXMKsgILCAcRbVezqU/uLSm/+eq9FK1oKpA0wzBnGh742jfW3zNg8lCPB/LGu3NqtG7BfQdnaLUQjzSmTnp/Hysu7vSXT3fxP501ycw57LM/C5SJrgQ5R0WA9v9d3NQabVfabWKdXVY2ahpdYAJRq2dMlWeZCqY9Da5DHA0boeBCKMfCh+5u344LMds8NBJcUADD5dFle5ON/Vzd0b61QdO60IH56LG+g0x9FomMt6cbE3ch59CXYd6hllgqhPq+ljgCaAJnIZImY1mFphfeH54lqbfUvayirRe1Prz17b0+y8O9Y2dOXNg6ZOMjBxuGzWsU7K9ety7iNvtkKXIPWmltm0Bq2JZaGg6bt96KE40jHxDEPaiitOehhELVzDRdZMqZBecNh0F9NNUaN01cp3PftkMmK2qRY56cr6vX7nY0fvvXLRuimVEt4kyrQz4Zahr7qwRVZXVNYwi2P8cGTwBKETED9AAFp7zI8IAoH05ucmDgpZYS+ujUt/ZrfRvLu/oo9fndKPC48PEov8m0dz8tekO4CVANhzeqpl3Y12HidPMQdnUJfuQooBEZUlesAJEHjGYmJd0A3jQ3BpsbgE8li2Hg+fHd9NbSUf6wLmhfu6eRT0+H2mpG6lbZzaCbI0hQoFu+QxwwqI/6jiY6HjRva4NRIelFIARzoQlIiIPEQGYcG0XJ/gDK4d1n+1kWkgKnX1wSQ/MlfrYtb6+3Y+1afuCYxOEPojKRxyAyC7bHDlJ42ChrRIL3Rn3wAkHnUTPEx/XwPHYPgh/0oCITU8sxWBtaF0QcLMvm2yE+I+cKwckXM6y4l0bOTud5np4rtL7zqb66buWdF8nVQdP/2z52IhER09ldkjqNjABQnBP/QbQtL8CMAEL9t2sidEQIUAJCCSSECGRBy4TWBjfcIT+sJ3oza5NyGPJiwnSkekn+lWhT2+V+rfP39Bn1ru6kc9rZJumsNSFsFDROYVX3s1Sab938LtE2jQE2xHV9UF10VeCkThG7FHYOAWZtGtzaVZSuG2QpxiFGIDaadzk2iOx8TQ7CtEo0EXhHxDjsXPZrp48U+oX717U2+alxV5m4HXUuF8kl61uresK9caZ+qaOw0Hd87xd1+33M7utEBEg4ZoP2hyGSPd2U4TjdxLwNLizCjCDKCSTpDBl2+qo0qdWt/SvLu/q2xs9DXKWE0t514VR9udicvVYh+N86hO2wYxZDYs7kbCvle0f6q1xVAyVZFjyufDNx0Hgtbqf0Hwq3gNvyIMZqOcq1VFWuq13NxvpicUd/erFOb17pacz2DrXpTK6qQRP9XxIvTRc97jp7slQqOtQf7wOdRjeUffUdxs4hJsCD4EDy2rLNHwEKttchmezItyTt5PfoguBGxVsOiatldLHru/qo68O9a1NaY1N3dJuo4p2l2iTNthGB2NtStqM58lR6zXdJVMDJpSzxQHmIUGnwWfsoU63xlA7RtTGzazLSRZ4TwmJ2pJrpdOu32B/xKiIzdLMIiCqdDYZ6fH5Qh+8kOmnzvZ0Kq61kMZKE0xTC9W5lHY7tgzHmUM71j2ZOMJtGyyz6jpwmxBVWMsX7jmPwROAw5kPAQs/C9Qsdt8LmIDQdoS365oGxhqnHM/xKOJiaa1f6Pl+ob9ZL/Wp1ZH+dtjV9TLWDpvA2sr2kDpDYRSSvnw54MZmqi2IV7FNLxhQsAUygQ7k+M431JAhxlYcqmrmS0xGCqydiPccoUNsP2bY7vwKTZRvb8kc3XxUmHOsH12O9dSZWE+upLp/LtJSVCpjaTN7RaD4ZJqBP1E0NVRup3Gc6711TU8SmAbxcE3dtgE0q64NPCEywEIgfjwjUgATfkTMu/b9cTJ9lLCky2H2uPTDNas0C3OqEGMgHiXarUu9sFvrMzdKffFGbr4Or+Rz2kJGM29ZqCABAe0czbNPG7i6hPjhMKCz9NafdHxmn/VrlJky2qa8DZNiP9Ow3MUafNPqDTwOxMD1fJ0sAq0/h6Mhy1iZ4F6RtJjVurNT6KFerneeSfXOcz090Im1YENv9j1F1kIiRvFH3t0LzaxK9ZiP/jfUNXULOA6ra96Hgzrfe0Q7Ozs1mQqRcs1H/HgGoML93o9v9z3p8aNgFCocoWWwNTcVa0tkm9n6K8NS39oY6VPXR/rrtUqvFT3tRonvLsgmITaWsc6pmaxEhmBilHkghuKeCh4/vIuS6jxXnLF520R91yzq9E5pTEdQAXfm7A/RacNlYvbpZGTK9H4S2zKXedW6EO/qvadjPXW+q8dWMp3vxUoLRrCuGg6Cd7vhQotQkdDnVhov9Uudhjon3kDrwDyCeBLof9B5DB4yRISh4kIfxzPehQQOiuh2PG8XjPRCmhBsNBpprpuZcRl+Zkb4o2EbYtvmqFS/rnU1j/T1G3194XpfX92q9Gw/006Bg0ffV8q3WeGafcTgPpUZ20O0NJszlaAr59i8jE2EQmfjE6hexpbsZKCZBg+z3eZkiY60xOn5SA8tRXrLIl5HO3r8zLzOJ7XmjSMxeQLAGWH2fZYr7KfaNKR2w4UO4ZjFCcK7w86hPqnnAJawcoT749T1uNsKH5IwAlS3ixMgVwLy7KSZPawg4R0F4qBAHNwDHIjFmbR5xvA5gbjNKgy6Bl9JgVDr2yr1y0rbeaWNQnq5jPT0xo6+vZHr+d3Y9ty8MUo0wjWeyTSAI/OFb0iwyHo85z3pGzNxXmCDHHo6OIw9R04CXpXoTpk6wPXL6VQ63x3o/vlKj52a12OnenpDXNtGaEtZpHnMQ+j+ceNSVybT1WmluiQd7yZC2aFFGzxGnNvwJ9CZqLgOS62OW8djgTkgkgoLlRda/m3I78woQloBJAC4DWIHjA8TQwSeJ1qgt0ITDZpdjsdzW7RQJjGjWFtFro2i1muDSC8PK1tPzo7LuFTB2fXGCM+spYZ5KdZKDevENqNl6jIIv1RrylortgWPpU4idZNYvbTWclLbdkNsYne+E+sN3VR3zUU630O2YVtN/P4gNzZyDJwJbt6oJ4sid++lZvPkjTV0JVRm+IXy344z9OYI9IemJ6nrMXhChO3MHReJ7W9vdh0yDvLbXSRcj4K006ZlEL79LICHM0Ixvwl4mtQDk7AlJ7F5Y63rQoOK2XDWjtfaLkpt5bXWy9JAtlVK/TwyB0pha3CW/jKbPZcwfMbEM9HpNNZiEsm4SVJpOY41h2LRLBxhTrWqxAV1H2sBRTTV3tpdzeEG8ayVh6tSlmBNAIDCMV3u8PT7fx6D53udFVofXAZQBGAE0ACgqdnbGZL+UfPry6EJ3QyXbVVC0/KY6LT+iPduXRi6J4u/la5xuGaHPHo4wqG8c5NHN3Tjm9T8FCL3hCG5NfFxOUO5Q1lDi4cWACrcW/o/4H9u++qJo5aX1kTrgpgBLKG17WXbgOukB5XOYZOeJuuy4aSP5JCXOr4+14VnxJ1mPotv4GlN7+grWg00tXAYhdiDYyfmwcyOqNEDoccBOCYbjTs+zwN/AQjlodxtsHD/w3Z838ADoQLHgcvQ8kJrdJbuQ99bAQ5pTAb8cB63OPSqH+PC6ozuBpyZLDLG6vjCZeSmdsEJeDaZu5VC89rC2tKhANyGg9FgKCeNg2sAQ5n5UeYftuP7muM2iwYk/NrPbjcxw+hpOt69AHHQepj2tXdV42/tlQNy/Ky5cBhOPw1yC+XjOgAphArvw/0Pw/n/A08zrRDwreE5AAAAAElFTkSuQmCC;fontStyle=1;fontSize=20;sketch=0;" parent="1" vertex="1">
          <mxGeometry x="417" y="645" width="63.8" height="58" as="geometry" />
        </mxCell>
        <mxCell id="Nti4WjDRyjgu_Wvz6jyu-12" value="&lt;span style=&quot;color: rgb(35 , 47 , 62) ; font-size: 16px&quot;&gt;服务A_1&lt;/span&gt;&lt;br style=&quot;color: rgb(35 , 47 , 62) ; font-size: 16px&quot;&gt;&lt;span style=&quot;color: rgb(35 , 47 , 62) ; font-size: 16px&quot;&gt;服务B_2&lt;/span&gt;" style="points=[[0,0,0],[0.25,0,0],[0.5,0,0],[0.75,0,0],[1,0,0],[0,1,0],[0.25,1,0],[0.5,1,0],[0.75,1,0],[1,1,0],[0,0.25,0],[0,0.5,0],[0,0.75,0],[1,0.25,0],[1,0.5,0],[1,0.75,0]];gradientDirection=north;outlineConnect=0;fillColor=#e1d5e7;strokeColor=#9673a6;dashed=0;verticalLabelPosition=bottom;verticalAlign=top;align=center;html=1;fontSize=16;fontStyle=1;aspect=fixed;shape=mxgraph.aws4.resourceIcon;resIcon=mxgraph.aws4.general;rounded=0;shadow=1;glass=1;sketch=0;" parent="1" vertex="1">
          <mxGeometry x="633.57" y="473.5" width="43" height="43" as="geometry" />
        </mxCell>
        <mxCell id="Nti4WjDRyjgu_Wvz6jyu-13" value="&lt;span style=&quot;color: rgb(35 , 47 , 62) ; font-size: 16px&quot;&gt;服务C_1&lt;/span&gt;&lt;br style=&quot;color: rgb(35 , 47 , 62) ; font-size: 16px&quot;&gt;&lt;span style=&quot;color: rgb(35 , 47 , 62) ; font-size: 16px&quot;&gt;服务A_2&lt;/span&gt;" style="points=[[0,0,0],[0.25,0,0],[0.5,0,0],[0.75,0,0],[1,0,0],[0,1,0],[0.25,1,0],[0.5,1,0],[0.75,1,0],[1,1,0],[0,0.25,0],[0,0.5,0],[0,0.75,0],[1,0.25,0],[1,0.5,0],[1,0.75,0]];gradientDirection=north;outlineConnect=0;fillColor=#e1d5e7;strokeColor=#9673a6;dashed=0;verticalLabelPosition=bottom;verticalAlign=top;align=center;html=1;fontSize=16;fontStyle=1;aspect=fixed;shape=mxgraph.aws4.resourceIcon;resIcon=mxgraph.aws4.general;rounded=0;shadow=1;glass=1;sketch=0;" parent="1" vertex="1">
          <mxGeometry x="728.57" y="476.5" width="41" height="41" as="geometry" />
        </mxCell>
        <mxCell id="Nti4WjDRyjgu_Wvz6jyu-15" value="&lt;span style=&quot;color: rgb(35 , 47 , 62) ; font-size: 16px&quot;&gt;服务D_2&lt;/span&gt;&lt;br style=&quot;color: rgb(35 , 47 , 62) ; font-size: 16px&quot;&gt;&lt;span style=&quot;color: rgb(35 , 47 , 62) ; font-size: 16px&quot;&gt;服务B_1&lt;/span&gt;" style="points=[[0,0,0],[0.25,0,0],[0.5,0,0],[0.75,0,0],[1,0,0],[0,1,0],[0.25,1,0],[0.5,1,0],[0.75,1,0],[1,1,0],[0,0.25,0],[0,0.5,0],[0,0.75,0],[1,0.25,0],[1,0.5,0],[1,0.75,0]];gradientDirection=north;outlineConnect=0;fillColor=#e1d5e7;strokeColor=#9673a6;dashed=0;verticalLabelPosition=bottom;verticalAlign=top;align=center;html=1;fontSize=16;fontStyle=1;aspect=fixed;shape=mxgraph.aws4.resourceIcon;resIcon=mxgraph.aws4.general;rounded=0;shadow=1;glass=1;sketch=0;" parent="1" vertex="1">
          <mxGeometry x="819.4300000000001" y="473.5" width="44" height="44" as="geometry" />
        </mxCell>
        <mxCell id="Nti4WjDRyjgu_Wvz6jyu-16" value="&lt;span style=&quot;color: rgb(35 , 47 , 62) ; font-size: 16px&quot;&gt;服务A_3&lt;/span&gt;&lt;br style=&quot;color: rgb(35 , 47 , 62) ; font-size: 16px&quot;&gt;&lt;span style=&quot;color: rgb(35 , 47 , 62) ; font-size: 16px&quot;&gt;服务C_2&lt;/span&gt;" style="points=[[0,0,0],[0.25,0,0],[0.5,0,0],[0.75,0,0],[1,0,0],[0,1,0],[0.25,1,0],[0.5,1,0],[0.75,1,0],[1,1,0],[0,0.25,0],[0,0.5,0],[0,0.75,0],[1,0.25,0],[1,0.5,0],[1,0.75,0]];gradientDirection=north;outlineConnect=0;fillColor=#e1d5e7;strokeColor=#9673a6;dashed=0;verticalLabelPosition=bottom;verticalAlign=top;align=center;html=1;fontSize=16;fontStyle=1;aspect=fixed;shape=mxgraph.aws4.resourceIcon;resIcon=mxgraph.aws4.general;rounded=0;shadow=1;glass=1;sketch=0;" parent="1" vertex="1">
          <mxGeometry x="634.5" y="576" width="40" height="40" as="geometry" />
        </mxCell>
        <mxCell id="Nti4WjDRyjgu_Wvz6jyu-17" value="&lt;span style=&quot;color: rgb(35 , 47 , 62) ; font-size: 16px&quot;&gt;服务B_3&lt;/span&gt;&lt;br style=&quot;color: rgb(35 , 47 , 62) ; font-size: 16px&quot;&gt;&lt;span style=&quot;color: rgb(35 , 47 , 62) ; font-size: 16px&quot;&gt;服务D_1&lt;/span&gt;" style="points=[[0,0,0],[0.25,0,0],[0.5,0,0],[0.75,0,0],[1,0,0],[0,1,0],[0.25,1,0],[0.5,1,0],[0.75,1,0],[1,1,0],[0,0.25,0],[0,0.5,0],[0,0.75,0],[1,0.25,0],[1,0.5,0],[1,0.75,0]];gradientDirection=north;outlineConnect=0;fillColor=#e1d5e7;strokeColor=#9673a6;dashed=0;verticalLabelPosition=bottom;verticalAlign=top;align=center;html=1;fontSize=16;fontStyle=1;aspect=fixed;shape=mxgraph.aws4.resourceIcon;resIcon=mxgraph.aws4.general;rounded=0;shadow=1;glass=1;sketch=0;" parent="1" vertex="1">
          <mxGeometry x="728" y="571" width="41" height="41" as="geometry" />
        </mxCell>
        <mxCell id="a6vqPckB2kI22RjsVBpU-3" value="" style="rounded=0;orthogonalLoop=1;jettySize=auto;html=1;fontSize=21;strokeWidth=3;shadow=1;" edge="1" parent="1" source="a6vqPckB2kI22RjsVBpU-2" target="1yn95lNJv_hw5B5bu8lK-18">
          <mxGeometry relative="1" as="geometry" />
        </mxCell>
        <mxCell id="a6vqPckB2kI22RjsVBpU-2" value="" style="shape=image;verticalLabelPosition=bottom;labelBackgroundColor=#ffffff;verticalAlign=top;aspect=fixed;imageAspect=0;image=data:image/png,iVBORw0KGgoAAAANSUhEUgAAAMgAAABvCAYAAACpQY/IAAAgAElEQVR4Ae1dB3xUxdb/72520wkkAYTQURCkCAg+xYeKKOJnF0QUxYKKCqKigq+IDZ+FYgGxF1AUfU+x4hPEShELRektdBISSEjPZne/3//sznL37r27m4b4vJPf5t47c+bMmTNzppw5M2Pz+Xw+WM7igMUBQw7YDX0tT4sDFgeEA5aAWBXB4kAEDlgCEoE5VpDFAUtArDpgcSACBywBicAcK8jiQJzFAosDR5oDVJzaAPiqKuEtLYAtPgn2+BQ/GTaGHD3OEpCjpyz+HJRwVcFdjkOLXkLlj3PhKcyFPSEFcR1OQ4ML7oM97RjY7EfPwMZmrYP8OerlUZFLnw++ylIUvHITytd/C7cXkK4EgAOAKy0TDW95E3HNO8FmOzqE5Oig4qgoPYuII8GBog8eQvmG7+D2+ACfF/D6fx6vF+WF+Sh4fgS8h3KBo2T92hKQI1ErrDTg83lRvnEJSpe9A7eHXUe4AYfP60FlYQ4K59wj8EeDkYclIFblrXcOSEX3AaVfPA13lTdi7+Dx+FC+9iuU/vyhGn3VO32RErAEJBJ3rLA64QD1UlW5W1Gx5UeDfkOfhA9VPhuKP5wkGq7fe6hlCYi+fKzvOueADz5Ubl0OBzz+eUfUFHyoOpSLos+fikGgoiKrFYAlILVinxU5Fg7YYEPF5mWo5MQ8FufzocrjQ+n3s+De9VvEIVks6GoDYwlIbbhnxY3OAWqjbDbY87bCG6N8EKkNPlRVVaHw3X8APk/0dOoJwhKQemKshfYwB7zlRXDn76KchDvxNArgaMyHquyfUbx07u/Wi1gCEl5klk9dcsBmg6dgH9yH8qXC61Hb2Ls4WA2NhMQHt8+G0s8mw1tyoO6EhL2a9qeIUn7qG4BlaqJhhvVaDxzgfCJ3GygDVRxiaYdZNjsSM7IQf/pIlHzwICplJKUFILwXVUV5OPTpFDS8fFLNCGTF1zoK7aH9qNy5GpVblqMqbwdoHeZq1gEJ3QbCldUpCG0JSJAV1kt9caBy56/++YeuorLPsKe3RGq/Eaj4eR7c2SsNtbpVXh8qfpiLyr8MhbNl15hstbgwSeWASKTNDm/ZIbh3rxMTF++WJSjfuQa2ylIQyhOYHLntNlmrSRl0F1LOGSPssASkvmqFhdfPAbbWu9f4TUt0PKFNoq3Z8YA9DqmXPQjPs0NQWVkJb8DaNwju88HtduPQ+xOReft7gM8mE/9gOF8CwieWwpzXVFWgct9mVGxaiqoN38K9czW8xQekpxAbMIlD8aGI+J34e9wo/vRJOI89BfHtTrKGWAHeWI/64ACNE2lvlbdNWn2akhx2Ntjhg6tVN/GKb9MTCX0uR9WSt+AzUAd7vV64t/2M4h/+g5RThvrREDerdyCdqrztqNj6MyrXLYJv50pU5u+G3W5DZRVXYjjvYDTGOeyUcIgP8RDC55OexhKQw3yy3uqJA76Sg6jI3wW9XRUn56z0cU3aB1NOOW8cKn79HJ7CfIMFRR/cXk7Yn0RSt3NgT26EqoJ9qNyxGuVrFgE7fkbFvi1wwCvrLSIGHDqJ3VcwiagvpEuEJmBNbA2xorLMAqgxB2w2uPdvh89dFjo5DyCUfSCN2/i/bDY4UjORdO5d8L73d1R6AvMHbeI+L9yFudj/7FDExSfCvWe9mM/7fDZUBYZYbt08Rxs9pnfpZXxIOLaPgFtq3pi4ZgHViAOiwdoCO+cEIWMZv7y4MlrAntQwBHXyKVcgrlV3sCU3ch6fD5V71qN06wpUVpTB7QGqaDJPwaitcDBBmw2urM5wtT1JkrcExKgULL+64YDNhortq/yjnLDK64Mts61fI6WEgcMbhxMNBj8EpzMOMNo0xXmC1+uf21AwQvTGkcg2FriQGDYb4p1xSL5kotDBMEtAQjhkfdQVB4JzjtxNCJtz22xw2m1wZHUOb/XZgrfugYQ+Q+BgnVbCU23C2GvZZWei02GHw8axk7GQyKgKNsTZgMSBY5HQoW8wXUtAqs14K0IsHJCqWFUJT152OLgPMuxytugSHhbwST3/XsSlpptW6rCIMozzC4UzzgGnA3DGJyCpbXcknXUrks64AXGs7QYCx2m5w25D0smDkcr1D01vZ03SwzhtedQFB6gw9RTmoLIgR9ptfyt9GLPb64WzaTsZIIW165ywp2Qg6by74Zl7n+wPMRpKyb51m38YxMrvtTngatoOttYnIfGE/nC17g5Hw2Zw792Agmcu8+MR1fBhOvjmcNgQ36430oY86t8LrxEiS0BCeWV91YYDwZbXLw7l67+DzevRNsh+7BxGNciQyhsmHIH0iSHllCtQvmwuPNmrAmpiSoNfDety2GR13pneHPaWJyK+85lwtekFZ5O28HEuY7OD6y4U0oPPj0B5UaHMW/Tp2e12xKW3RKPrX4DNlRjWw1gCUpsKYcUNDkdkic3rEXOOst8WomrtQlTsXOu3vzKYSDszW8MenxyMr2elaLHscWgw+GF4n74UHk+VmMBz2OXI6gLn8acj/ti/wHnMcbA5E/zRKaAiHP7FQx4vdODlG+E+uEfWVfTCwTmKKyUNjUa9AXtqRphwEKklIPqSsb6jcyDYU/DwtwpUZK9E2erP4V3/NSpytrKRR6Us0AUqqg4jV9B9jQMLhJrhjA5MKmx8mx5IPn8CqooPIKHzGWJIKKphzSp6cF4RwOXfA+9F4TvjUZm9AlQNhzmbHfEuFxpcPR1xTdubHjNkCUgY5ywPQw4EWmepfJWlKN+yHGW/fAzP5sVw5++WyszzGMQFx/kGFROA02GDs2U3f+8RSUAC6JL73ySw/rWRAE6lAjaITzha/5b8NC+wkK6nwyZaraSL70dCp9MNe45A0lYPohhhPQ04oFpemoWUFaJ841KUr/gE7k2L4S3Og9dnC6hwbf7zrQxQhHtx7uCDK+v48CATHxGMoCCEDZRCY/l8KFn2LkoWTDcXDjuQetYopPz1mojCQcRWDxLKXuuLHAj0Fp6iPFRsXIzyFR+jcvMy+MoK4fH5J8f+aYXqMqKzTSbN1Bhx/SPOgbiMVtEjVReCZ29t/gEl//lHwHo4tOfgF9dEErsPROoF401WRUITtQQklB9/7i+xivWhYssPKPvmVbFotblL5YhQ6UykvsUuFP65gc2//uDzwZmRBcexfZHU+1I4GjWvU17TatiTvwNFr9+C8vJyA2NHCqcdzqzOSLtyCmx2rtRH6Y2sHqROy+iPjczng6dgLwrnTkDF2q9k6CT7iA5LRmz5C1Q6l4NTcci6hL3D6UjqPgiuNifCFhdvoNOKDbUpFAW7pAD5M6+B+xC35oYKMelgD+ZqdAzSb3oN9oTUmISD6Vk9iCnX/0QB3JCUuw2FMy5HeUEOvGIbIt1FbEwQE3EbXHE2eOFAfIvj4eg0AIldBsDVojN8dkdgd59/JTt6ux1bsgJF4XBXoOCNW1G1f5uY0OtjUzgSk1ORNvJVOBo2jVk4iMcSED03/2zfrGCeShx641aUHcwRQ8CoLJBewr9gFx9ng8fuRHzr7ojrMhCJnc8MqE0pBn5R8GufomKtNgA1akyBOw3L1y8Obp0NQcRFSacDycMmw9XiBGMDyJAIoR+WgITy40/5VbF5Ody71xieOhLOEBsS4uzwxCUioX1vuLr/H+I7noa4jJaBlepA/xDD+D4cd/V8RJ3732dRvPgtU40VDRCTzhsvQ7xY5hx6Cv5UAiItTowFJ/p+DbeitYIKPhqcQqng1XekeGZ0m/krnLGmUblrjd8chHU74sjKJubpiRdPRFLPC2BPbRwY7/sXBDmUOWLO50PpLx+j5LPJpsLBk1SS+41AgwGjJFsB0a0WiX8aAdm5Yyd27d6F+PgE9OzZw5RJPM3vl19+gdfjlX3MTqcLxx13LBo0aGC6iYfINm7ciAMHDqBhw4bo1OnwsTFmCW3btg0b1m9AaVkp2rRug67dusLlcoWAezwe/Pzzz2KH1LNnTzidzmD4qpWrJG7Xrl2RkhK4viwYCqxevRqlpaXBra6cazdv1gxt2gZ28GlgeQVabO2Gf4956fxpcGevQPJpV8PVtldMp4xokqv9a0ANXb5wuulVCsyQM60xGlz8T0kvUgMUiaD/+Rum2IpWuatwyy23Yvv27VLR35j1OpKSkkBDNa0j7O7du3H9dTf4J3ui/gDS0tLw4EMP4oQTOocJCeMUFBTghutHouhQEdof1x4zZz5nWCiEpRA9Ne0p/PDDclAA6Fh4Tz09DSeccEIQv6LlumuvR2ZmJma/OQsOB+9hgpzwMeKaa5GffwBvzHoNxxxzTEg84mW8ffv2BSetzOuNN47E4CGDQ/MtO/TWIf+JQXBXkZ6IXUhggmsTcxI5dCGrE+JPHio9iiOt6WHbqtgkTvJTo38+H4q+ehnF8x4yXPPg/Idm7+lj5iK+/cnVmphr6QmtIdqQ/6H3LxYsQHZ2trSmhw4dQk5OTrBC6bO5d+8+gUtPT8fpZ5yO5s2bo7CwEK+9+qppnLlz3wXxcsaYs2+fvLOCa50I0sEC3DH2DhGO5JRknDXgLJx77kA0bpwpPY8WnkKzZ88eqeAtWrZAXFycpE88+/fvF0HLzMxARkaGNprQTsHJz89HfHw8+vXrJ7/T/noaevTsGSocjBnYYprY9Wwx+w5BZvTBfPm8QhdNS0p3rZdD33If7oeDb4yWNRSft0rmI9z5V58upe9VcGS0NKn8PADbi6JPnogu9BGI/F2HWDzVQnV92gql/Ei39j1CPgyDiLOsrAxz3pojFYMtMSvXzp270K5du7A4hN+6datUMgrHLbeMkiHOfRP+hoMHCwzh2Up/+smnSEhIQGJiosDRj0MyrWM+Zs58Hjk5uTjuuOPw8CMPBYWipKREKrM2r6SFwzD6tW/XLtgTsIGn4LCXaJ7VXIZlWt6xp9izZ7ecL9WtWzdMfOD+IBlauKAnX3w+pA6ZJGdHlR/Y69/SGtRBhUDqPvz7wOWAhfJSeH76EOU/zUN8i05w9h6CxB4XIK7hMf44dd2jULXsSkTSOWPhfeduVFYZT6B4cmLZb1+KyjnGcWRIHo+4gCihYMGz1WVh5+3PQ0FhIarcbhlnZzbORFZWC2RlNQ+2eNrKE5KDKB8fffiRDDV69eqF7t274bXXXsemTZvQr99fw4SPaWzetEkwsgfZti0bn306XwSGrTgrmJ6ON998S4TwoosvQklxMb5cuAic73To0CFIGePl5ubiu+++k/zdO/4eGbapIR7nEHq8jLxxo5+WHTt24s3Zb8rghwcgrFu/XnC3akXNUShN5C/TpyN/Z89+U4SJQnnqqaeIf9g/no/boDEajZ6Lg89fA3dutv+UEF0vGBYv6OEXFC4s8hg29871cO15GCXzp8DVuT+STrsGCceZpB3EUbOX5N4Xo/zrl1C5e8Ph4V0Alayuwy500CiR+92rKyRHTEBU61VcXIxvv/0WixZ9hW1bt6GoqEgqh7aCEJaVp23bthh47kAMHHiOtNCqQsXCSuJgBXnvvX/L8GT48KtwqKhIom7ZsiUoeAqXqmh79uyVSvfySy/jlZdfkQUu9gYjrrlGgcqT8OxtFn25SOYzgwdfJu/cF7Fh40b0P6t/SKVnb8BWnz1X69atQ3Bp864C6Ld7l/88qeXLl+PH5T/KEE7qLPnjsKNjx44KPORJhQHjZ2dvx/Y3Zsn7tdeOMBcQ6antiMtsg4xxH6Pok8koXz4Xnspy+G9MO3z6YEhChh+qV7HDWVkO7FsPeKqk8vKiTgqwVtlgiCJWT/YiDheSzr0TVa+NMjwqiOVEFXbZys+Q2PPCkDKJJZkjIiAksry8Ah988AE+eP8DmdSqnkQ9CaMcC5f+bOlZmed9MA9jx96OHj17VCuD7777nswfqB169913UVxcIvH37tkrd09Q4LRCR+Hdu3evCBRbXFbCFllZuHzoULRu3Sos7VlvzJIJM4dXMnzalyPClb0tOwQv81VZ6ZbsMV90zK+RYKgwDrtyc/cjPt6F6667LjhB5x3ib895W+YYrVqGG/wxPzt27hT+XXHFUJmj0HqWvYdZekIQ/7EnSUxD2pCHkXTG9Sj9bhbKf/w3vKWF/iub/dIZBDd+4W4+mwwZ4/vdgNSBY0At2d59+/DUtKcx6pab0aZNm+i0GCM39E3sdg7K2pwI99YV4bsX4ZOjgUr++5QcTC2bq6ox3Kt3AWGF2LF9ByZNejQ4UWblUD/mWCsc+m/G37VrF/7+93/ghpE3gC11NEd8uTm5+Pijj6UgeN7rsmU/BCtlXl4eDuQfAIdyWsdhECfkbOWfefZpqeSKNm3lIk1r16wVnIzPXnDJ4iVB/Hv37ZU5ACfWSgA5XCQu9iQrVqxA9+7dJWka1tGfWjWt4zyGPSAr05DLhwTnIJxTvfXmW9KjUnuldaSroqICOftyZG5CjVWjRo20INHfA5XH2bgt0i6diNSBt6Nk+b9Rwdue8rJR5bULvYbaLpsdTjvgbHECGlzxhBw07amqwkfvz8OsWbNldMOhK/Or5Wd0oiJAsBexxyF50N2onDlchCGMNh6wmLMFpcv/jZS+wyMgCw+qVwEhI3766Sc8+ui/UFxULIyhX3Wcgmclf+H5F6SrZsFHc3PmvC1zA1bEq4ZfGShUG6ZOnSrCs2fvHjRu0jgEza6dvOTFHlSbGhUk/fjjXIYVklqoswYMEK0NK+ejk/6F/bl5Mq9q1rxZED8rOmlZtWoVJt7/AE499VS4XE788ssKPDLpkZAeipWH6mamQ8Gio6Dxm5WfQtyqVSukNUwL4lcvFHKqkjmMmT59Bhx2B6o8VbjpphvRtGnT2CtmQFB4xGfqmTci5bRrUPbrf1H2zcuo2LYCXtgDJ7azR2QltcEVn4iEAbchtf/NsDvjkb19O6ZNfQpr1qyRdFu0aIHk5OTYaVCZivJkjUo4/q+I79AXng1L4A05A5iRec+IHWULZyCp18XgiY6xzkXqTUBYebjI9fBDj4QsWEXJq2kwKwdxvvLKq2jRsiX69OkdbJ21kQjHyfWXX34pw5KRN94gE2bVYnFYsj93PzZv2gxqeZQ/caxfv1741r59O6mMqvXX4uf70qXLZCGOhX3tddeCraJyTZo0wc6d/kVJJSBMg7jGTxiP+/95vwwdFyxYIFE4Qae6VuuYTy4iMg4Fi3lSdHL4xHdqsPT00X/3rt0Szgbl66++FrTUro0ZM1qbROzvAUGxOeOR1PNCJPW4ABVbf0TJVy+iYu0i+ALzC1f73kgb+hjijjlOes9333wL77z9jgytOVkmbY3SG8nwNdbEtfmOFIe4eRtV8qBxsm+lkta8uoaYQuM5sBslS+YglTsUY3T1slDIjHFR7s477pJhAr/rypEZrJDTZ0xHkyaNgxVHi59qXK57JCYk4KTe/iMkVfiGDRtFo8SWWa/q3bBhg/QuHY/vCFZ0M0dB4jCtYVpDdOkaerYTV7g55OIcpukxTUNQkA88xn/lypXYnr0dScnJ6NTp+DA6CMeJNoeJelqo9duyeYusz7Q/9vDBzyohzqE2bdosp5pLy24D4uKc0qCQd3XiWJ48d3ffJhR/Pxtxjdsh9bSr4LPHCd1Tp0yTuSPzocqewty/f39MuG98mGAb0cR4tGpQE3oRMrXFySwfPh8OvnwDSlYvCA5JQ3Db7EhIy0Tm3xb5jzw1w6OJVOcCwoxxXD1m9O1SSdkamjkWmCo0LTPN4JU/V5S7dOmCJ558PLiApsKO9qeqMFo6FQ+0fn+Id03D566qwhtvzML7/3lf5kGkX5tXzseuvno4rhp+VVQBYTzOvyhoDz70AHweN8pWzoerdTc5okfUeVK5KaiatW5aBexagwNTL0Clm5qz8LrHHYVJA8ci7bxxMQ2z6mWI9dZbc6SFNBMOVSHYqrhc8YiLc8h8gYxhHC1j9RWFccnsXr16inApXHq4o/X7j0ZvRD4GWmCWF+cZ7859V1TZ+vJjnumX1SIr2CCa4SUcFRGcp3EUUFRUjJTkJLgXPYuDuzYhKasj0PZkJHY5C66WXWFPSffvhw/QQpP2+BPPh4cHNhgMXHhJTvm3ryLltKvhaNAkqpDUqYAwcxwCUC3rNZBeLVM6d+qEK4dfBY73qYblxPKbb77Fh/M+lCGKnsnsXTnhzMjMwIQJ42XC+z9V2bTM+YO9s6z27eMJin5B0JPPcP5oyRCpzAjDIegTjz+BtWvXirDl5OxDSrt28GS0g2/HBhTtWAMnr1L77lU4khvKGVmuTmcivsOpcDbrIIuBKQPHomL1Z/BUVIb1IrJ4WFqE4oUz0eDSiWrQpic5+F2nAkKsXLlWqstgKoEXxZxBgwbh9rFjZHxJptDRIJAT0jPPOAP33fc3mSeoMMbjX5+T++DuceNEe6Nw6dOwvo88B1gWVExwIdDIcaTAYXFmRqaMEPTKBcZhWfM387nn8f33i4Nwu3fvwbHHHou4rBPgXDUfFVW+gFGlDe7iQtg2LEbV5iUo9gEu2mW17gnalcV1PB2eXxeE9SKchfEy0bKlc5B8xvVwpLeMKLSaAZxR1mL3Y+a4Urx8+Y+SUbOYWVlZuG30rcG5A5nFH5nMZ6vWrTBp0iNiwi2CEVh0un7k9XjooQfRsFHDqGNYs7T1/qpQ9E893O/xradJff8etERLk+W0R9TSxgLC+LRGMFJLM4x5o+NaCdeutEPzrVu2Shjv7JD1jeDEmnYtXrEbq3B7xKK3JHe72IIdev1WlItwGIyxBJsPnsoyFH/5fEThIGidCQiR0RBQ6e+FDt0/CgD3StDKlO9Gjv5t27XFNSOuFhjq7jkZHzbsCvlmYdTUqUqmCoRPrl1w1bqkpFS6d4VfwdY0rerGU+kp2kgHtTjsjTkmJ50qTA9b3bSiwWvxm70rHIomWhCbOcJwwZJqcaNyZ17nzfswYG92uFIz3pYtm2WNyZHRKnCItUn5B1S77MV4nbTInEaJEEIbG3MvULHiE7n9Vq8S1sLW6RCLJtaUfmZYMU6bGP0OHSqMKrWMc+GFF4qpxZVXDou6WUmbhtE70yVN3EC0bt06rFyxUlShXFSjtqSisgK8UjIpKVFMM7gIR/UwFQEsWBXfCHdt/RSf+KTFATc6rVq9GjSHKSg4iNLSMumZqe5skNYATZs0RafOnXBynz7o0LFDsMIxf7V1ihbiolCy4aCJjDewb4UDdn8Ft4mJPmliHAoyy96s3EmXGR8Z/+uvv5FFYL4rGlReOMRiPY9r1Ayu1HSUHeL9hSrU7BmOxwjSU5QvJ7/Htw1dCtDC1qmAKHsjbQLad2Z+1arVWL9+AzpqClcLw3cymswfNepmCapp4TM9xuW6AOdGy5YtRUFBoeDUFwQ9S0tLZH2D6yFcaOQC2+mnn47Lh16OFi2yakWLRNb8U+nT/otpffHfL4ROgnCoapRnrqDv3LFLFmBp3du+fXtccukl6N//TBmyGrXOmiQjvpIeCsU3X3+Dr776Clu3bcOhwkNSYdWQhzTxR9gXX3xBenp+s5GhkkXlSZ8Q6WrWrJmEa/NFvGwQpk6ZIr23UXyuNx0sKEB6o0ay7x284LMuHKWOVyaUFkbUZNWpgHBhziiTKj8M41Dh4YcfxowZ02U/hJZhCk49I4UpGKOnomH79h2y0Yl2WGzltE7BaP207yw8tqDz58+XCnPpZZdi2LBhSEiIN6y82rjR3ombfPjoo4/x7/f+HTTeJE0qz+b0sfn0V9LNmzdjyuQpovkbd/ddIjAqfjQaVLhKh4Lx0ksvi3JECYQK08KystM4k3NB5SgcXLmP5Fq2Cp0MMw0uJj/04MPSS+rTIi7mJbVBqhwybeMN5806IWHHSrEH40Sbl0ZRK1UjFxB03kMiXZRJD2w8EahRikDjxo2DK59mKMgImnrQBEU7rjaDr64/8VNVOHvWbIwZPQaLFy8Jtk4MU79oeBUcC5ItKy1o77zjTtmNqCpQNBz6cIVz3br1spBKk3pWLuJjGJ166uNqvxUMn4zLVfe77hiH+fM/jxmHSosNx4zpM8SYVG3RJV6VhjZd9U6TkdTU1CAMW3mz3osDP+JqptsWzDrAjWjsFY3SonBwWPboo5Nk7sIFwbRLH0DqyNeRcPJQJDdpDR7K4Ipz+HsA7YKhIjTK09W4FZzNO0UcsdWpgKRnpKNNm9C9DkY0slDZtdKQTVs5jGCr40dcHAtPGH+faEQ456BfbR0LkHhoej927J0yV6guXlUJuJh2z933iFUvcdBfhdWEThW/pLQE06ZOA7f/xtqLMO60aU/hgw/mybBO4YpEB2G4zZdDYJUO5wl0DAtzgZaZayAKP/fwjx8/QYazRnGIl2p/ajM5H1TpcAchb45KH/YE0u/7Epl3fYSEs29HSpvucDnjkOB0+K8xoLCY9AhCH7cZO4DEAWNgcyUE8YfRXpdaLGaCv5P/8peICZIIMoWVY+HChXjxxZeELiNGGRFs5kd81KDdPmYsfv3112BhmMFX15/0cW6Qn5cnhUuNXaw0q7jPPP0MXn75lWDPGWv8WGglLvKAvdL8z/y7ICPFIzx7xf9+/kXM+SA+lnFGeobEURWXayBmeSEMtZbpGRlCHxutByY+IGVFevWO8OydHnhwIo497tjQnomVnj8uCzhccLU+EQ3/7y6kj/sYmfd9iaTLHkFyp9PgTEhCvMO/dKAu8vSbp/gv9eSxqClnj0ZK3yv1yYd912kPQuznnTdI9jYo5oWlqPEgUzkGpw1PbRzxUDjuHnePjKFZkc0KjOmQNqNfLDSwUNlLcYjIoVykdIiP4YzDzUKcc8RCW01pVGk999xMcH5iRhv9d+zYgbfffpsUxpLtIAyHUjQZUbjJR5rgq+8gYOCF/uwNGjZMk7w/Lqvk64Qnelji4r6Yv//9b2JrZzZsk3hKWGRoZUNc47ZIPm040m97G03u/x6p1z6HlD6XILlZW8TFJ8ARF4f4lL66kZEAABY1SURBVDQkH98XDUfNRsr54/XJG37X6SSdGaQV7CWXXII5c+YIE8wYp6hhOOcLnOAPvWKo8o75yfgcx3NYxbFwtPQU0/nk4lVKSjLc7iocPHgwONE0atm0BDENarrmzZuHIUOGaIPC3smTV195VSb70WgjrPrR/IYtKe3O2OpS26Xiq2dYYgGBJPyUyVPx7LPPIM7pPw1FD8veg7s8zXCRDjo+9TDc10Gn/Ml/M0cYTui5kv7sM8/KxjIj/jId9jT33nuPqNhV+mZ4Q/wVrdRD+3xwpGYi6cT/Q1KP88Uc31d2SI5XtbmSYE9sIDAh8SN81KmAqHSuGDYUP/74IzZt2giPkcWYAgw8yUQOPeITEnDxxRfpQs0/GY9nXnG3Itc0VIEZxaBAkOk8e+rsc85G165dZAMRKyDj8UyrDRs34LPP5uOHgNbLDB/9Wcjvzn0P5557rlRkowIl3MIFC/HOO3Mj0sa4/FHJ0e/0fjj1lFPQqnXrwMKaTXoq5o/rN+yF1BFGRvlUfpwvLfxyodCn/Pgk3VTLUrMXzbE1z8hI9w9rCBzobKjyJj+ZPyow2KOaOcI1b9ZcFgE/+eRTQz4w75zT3HHnHeDxREa8NMMf5h8QFuVv48HZyZpdlZwn6WAUrNGzzs3dmQgZxwIde/sdsrrO72iOTGFlJZMGDTo3GriEEy+3n3KIxqGLmSNuruDfPOom8CTCSPQQ9rfffsPjjz0h+9MJawRPOBb+baNvw0UXhR8GwDg8f+uWUbdKhTTCQXqJg5umrrzqSlxwwfmiQjXLB/05rONuSR5lFGm4Rvq432Xm889J681v5biRbfy9E0yHOYTjKS00T+dJkXqncDFP1HxdPXyEwS4+fyzCcoLOHlqvaicEw9m7jB4zGhdeeIE+qd/9u87nICrTbA0nPfpIzKvgZDYZyG6YVr1mFUpxjOGcHM6dO9ewoBUchW748OGYOm2KjGsVfSwYox/DO3fuLHvSqZEjjJFj+myNFy1aJDBG9M6Y8ZyxZbKmYrASPzdzBoYMGSzCYUST1o8t7YgR18gpiUZ0KT/Sw/3vXJTVOvrvCuw61Ppr37k1ePTo22TuoPU3eqeygl1LJD5x6GvWgDEed30ejcLB/NaLgAjiwLE9nHBxRdqMgVqms/C4NjL5ycn+83ENtBxa+Ndfex1lZf5DD7T+6p0t06233YJrrxsRopZU4WZPtuqcWHKvOOcBkWjftHGTzH20uJiPlStXYdnSZaaCzjRoMjJl6mRZZWYakdJR+BUM9+X37ds3VMujgAICyE8eGaR1pG17drbWK+SdPDvjzDPEjzQqurRPbQSuZyiatP7ad6bJn94RP4U92jxOH+9IftebgDATZECvk3rhzrvujLmCkpGcZE565FHRtBhN6Aizdes2LFm61JDxLDCmTQPHiy7yz2miFaKe6YxPQ8nhVw/3VxI9QGAoySEPbaj0jkoKs4pBWoib1slmh8bp8Wm/VV4o+KzQ6lsLo9Jev3ZdSDhh2YMwXO8YRn7zqCMjnHp4fu8MnN1lhM8IXvkR/4CzBwh/ld/R+KxXAWGGyQjaCt086uaYmc54nEjSDIGTQD3z+f3Zp5/CU2WuzuUeAlZuRYO81OAfD61jb2I0sVOViCekKEfaaKL962r/Wozy1z45TLrn3rtjHn5q46p3ps3hGedUig4Vpn3m7t8vlZ50qd/Bg+Z2U8TFNYtYHGHV4XaxwOthVq9aLUNQvf/R9F3vAsLMkpHUTvEEkEiFqRjDgmRLRl09j/bUOvrT7ueHZcvDBEfBMY2RI28I7jlR/tV9Eg9beGq+jBzppNu/Py8YTD8a+5FOFR4MDPSqfU/rKyeqsJeqjSN+dSCcGV+pHlaTY8LTvuxA/kHDclD5TU/3WzBHok3lLS/PXIMVKT7DqMh59pnp0cB+1/DalVA1Sb/qqivBQ9DMClOPjoXwyUefQJ24znDG5SLYvpzDR/tr4zGcVq7VPYVRi0P7Thp48gjxmtFdXlYmUVSl+fnnXwwnpQrHpZdeqk2iVu88A5jpqrT1yPRhNPMoKi4yhW/UqKHf9kmPyOCbE+/9eZykmzuVZz0E6WIjwsbk8/mfm9Kjj3ekv4+YgKjKxTsqOGxh66n8ImW6rLxMTk9XMGTsurXrTCenHJPzUDazglF4qvNs2bJlRHCVD9LG3oRzEuWnj9iyZQt06HCc3rvG3zwdMlJPxAVHFU6auGZh1ruR/vT0DJnXqDiRCGPvVGBw6r2Kw/R4tYM9giEh03zhhRcjbrRT+H6P5xETEGaODCPjx94xVlZLoxUCmccfNTHqnThovcpCNnL079ata7BSGMFU16+Qd39EcNwpR0faePUAN2CRXr1jeLt27U0n1nr4WL6pIaQqm7j1jn5c7GO4cjzv1wiW4fTnIXZGtKv42ieFrZx3kps4lu/Fl1wi96yYlTXT4rDvicefjMl0xySpevM+ogLCXLAQ2KpR/ctTztniR3JkINc7uNDEd8bn4pRRIbIQiI9n1poJUKS0zMK4nkCnT1NVNHWkJ8Npl0Q69LCMT38egl2XzigdhZ9h3Aeu6OQ3J9XqW8GpJ+lr2bKVIe0KRj2Jg+sbdEY0MJz+LAseWE1Fh1m6LCueYsLFz6PNHXEBIQPIKLa6PBQsJdX4bgwtozgp52HTNHWgVitSK0jhS0hM0Eav1Ttp5TGgRgKnKkZWwDaJCeVHsUviaYp16agS5yRc0aLH3ZAauADPmRcadRrlhWHEEcvZVcRHWDnqx2RuxnD+OMTiSZg33jTStFdXsDTVX736V0P69Pk6Ut+/i4Awc2yteL0Zj/Zn4URyhOVchLZovOlJ9SZGcVhZou1uM4pn5OevBPtEKWBEI/2o5VIX2RBHZUWFESrxIzwv2alLxw1HkVapmzX3nyrPNJk+D1dgvvROVdLGUc6u0sbbFTBzN8LHtDi0o5kJ3dlnn42TTz7ZdMRAHCy3J594MsQwU5ve7/FeZwKimGRWWGaZO/vsAdLCkKFmjridcf4NOvn5eaYtDFtGLtxRfRgJn1k6Rv7cK06DSDN3/PEdQ1bbucZh5kjftuzsOqON6XAewLzq86u+uehHp3ij4PU0shEi7dz0ZtTD6OH5vXvPnqABo1E4rRBoy0VaiJ8HaKemmFsmsJxpvzbzuZlG6H4Xv1oLCDPFHxn/9FNPi0aC37E4Mo6TTJ6VFcmRuRxLEy8PdOYJi2ZpEPann/xXJ0fCGS2MlYQ9FXfb8ZRIfXqq0PufdVZIGLejRnIbN2wQc5pYK2EkXAxTwxwzOO0B2tQ6sccxc6zQsihqBqDxZ/5Z5pFO0GTvQRN2OsI3adoE199wnelQi3BsYBcsWCg/Pc81yR+x1xoLCInnj0x//bU35BpkmjNzN1t1dtsxp9SEmDGDjKXhY2ZmY4Hh4mGkQiGDeS0abbpqWglV3riIxZPazWjj2Lpv31ODhUVaadrNdPmud/Tn/Gnp0qX6oBp/c06h6NUiUTRzeyxp4e/ggYOmwxfCs/eg1suIdj1uNS80hfUheAOvFmbQeYPkOKVIyhnSwl7ETBmjpaW+36stIKowWKl5kjfvB3/rrbeE8aycnET/5z/vm1YqbYZYYaih4v4GLRO1MPTnXXy8bIa9A7v1aBWfVwDwbkIznFr8+ndVsSj0vEvRLC3ScuFFF4RUKMblJJetplnaxPfaq6+LatMMt54m7TfjUCjUPMtsNx/TZ+9MIVZ5yss3P1yBaZidXaVNX71z/YONh6mzAc2aHRNMm3CkiXwbc/vtIXzT4yC9xM0tB5EUEPp49fFdbQEhwewCR918C55//gXpZpkhVQh88lpkVnovj68zcSxo4qJJuNnWVVXJzhrQP9gqizbLBCe9FS3cMcczXtV3hCjBINJEWrhlVRkbBgM1L6SLqt2LLrpY4+uvABxWcCVf8SMEIEAfD/ie/KT/LKhYhYRwxPnbr7/JmoFa24i0i5K9R1KSX2vGuDyMjrQb0Wa3O6T3MwrT54HfHF4pIdWHK0Fo0SJ8gZVhzZs3Ay8V5buZ44U4PFuA5fh7umoJiLvSjXvuvlc0Dbw3UBWalql8Zy9y/z8nylCLMFo49c0W4pFHJsntrdr4emZwftK7d29hJnuoAwf8k1I9nPab+Fh4j/3rMXz44YfB9Jm23mlp4y48Hu3Di0bNaGKhcnhw6623IDk5dDiiCvzMM8+IOM4m7sWLFwuP1LE/ig4tfYRT/OKQcdYbszFhwn1yAiTTkmFOBH5QQBw8GyfQeqsy06Zx+N0HXnWt8nDYP/yNMBxG82nGJ8Zq1jz0DkWFifEuvOjCiPZovC2Y7u2338GaNWsjpqPw1sezWgLidDmhDNnIGDPm0J/jx9tuGy1bWAs1J/SRsbwe4aYbb5b9ycyUER4ykd3x0Csul4VFwnG+c+CAf8EwGjOIk4LKecRdd47DkiVLZFij0lNpssfg3Rb/+tdjciIKNxipMH0apEkK98ILcIrJrbEMP7P/mREtdYmfP+7sIx+4QEbtjaJNCQufrNTcFEa42bNnSw/Hff9er38vPu/PMHPqajdFt9amTRtHXVvAIRFhoznSzl7QDJbhpF2peI3wsWzvuuvOqEMtNgKPP/a46dzJCHdd+h22QYgBKzN+/gXn49tvv4vaepBB1AJRs/XSiy/JgpHH4xXB4dBKVQKzZMl8Hk86YMCAIAg1MDRLIB0xOx9kCy1XaqlyZCvJcTntg4hv957dyN2XC7ZYxBsJNwuVe9lH3jjSNHnSTU3QZZddGrzo0winSos0cMvwnLffRpvWbUQhEZ8QL5eeUmh45yCVEuw9GYdDK/+hCT7k5+UHLXX1BJEO9r4qbX5zWGTo5KwD//0dhCdsJEeYaEf98PRF9mBmTuhrkQXeX88THSPVB84peYHruLvHmaGrN/9qCQip4MWX3GvBO8yjOTKSGWelZutPR8bQL5IjDFfa777n7uBGK+LieFsVHr9jcdJV8xpgj0cElkMahUPFj4UeCgcPMZv4wMSIk3CF87LLLpNDmbdu3RqspCpM+2Q+SJu33CsnpdDOjI7ZYz1luMor6eY7Kz6Hedzrofy0OOnHHxsDPy7/PfUHDvrzrvCpOITVTuj5HcmRF1xr0uNRcRifIw0uokZzPFuYp1/yHAAjxzT4+/zzL9CjRw/pnZn+kXLVSokZZ8GoqwhiIZKZU62Deo8UT6Vx2223iq2WtrBycmq3AKjo4FP7i0QPw1ggvNznyclPRBw6KTyk2RXvwj/v/0dM8IynKoKii2fOKnoVXgXDW7YYxjs5mBb99Y5+PAmejjDsqah5MoNlr8djkLT81uNU38SRlxf5qJ+MzMwQI0kVV/tkWuwRow21GIf8oPLEbAmBNKm8qac/3mF/bdqxvldLQBTSv/b7q0ycI+myFWx1nmQYfzfccD3OGXhOWGGpbl3LAIU/loJVsLE+iZN57NmrJyZPmSxq0FjTIRyHQv/85z+kN4w1XiTaKKhUISvVLdeEjHhBHISlINEx7YMHDkhPZYSfcxC2+Kys0ehkev4FxwIjVEE/Nf+Iho/hvDRp2JXDJG0zeKbLXaZPPjE5qPpVeX/11dfw4IMPgYfSca/Q0089gzW/rRFaPvnkE7z33nvSoASJq8ZLtQWEGeCPp4lzAa+uujvi5Lh17B23Gx4gx/C9e3hXRHhryfzSn/MKRV81eGAIqiojN3k98sjDaNDA3ETCEEGgYp7Y40SJzzWGuuAV51GqpecQy4wfqkdQvOHGJvLGyNnsNmQErkczCtf6MT3ZdFVUZI6P85/mh+c/2vhm74MHXybrXWY0Mh57TV6hzfON6RTsddddi7QGabjmmqtFxb4texu+WLBAtHxLFi/FnsDZwWZpR/KvtoAowljgkyc/KXeBs5VVxEZKzCiM8Ri/bdu2mDJlMs4///wwMFUJzG4xIg4K631/mxC066JfdWkiPCsxfyd0OQHTnpqKEdeOiKllDSM64EGcXbt1xYznpqNnz56S15rSRpQ0ZVELkewV6BQ+7dO/BpIUoALYvSvCAdNAVHMfhYhpcC6oH/5pw8m/lq1amAqvglVP4pSh1rg7g0cfqTDtk/WAP54LxvvuSQOdv34cHkrRGoANxBdfLMDJf+mDqihH0WrT0L/XSECIhExo1rwZpk+fjn79+knBq8qlT0R9qwJUcBQMtV9g+oxn0fH4jqaVmupYtf9A4dM+KSD9z+qPl195CZdfPkQ0Viod9SS8ooFP5c8naaGpPLfq8lTxadOmgttZFbw2req+EwdVs489/i8RYio5mKYa0vBdpcOnolP5E47v3D8zePBgqRhcR6JlM+lmmPZHHGqIo2jl6jv9Ca//MW5WVnMJV/CRnnn784R2xjPCxXRYHiovkXCpMOLiIRQsOz1O7TfhWBcenfRoyEq+Vgi4BZoHhVB93qd3H3D9rqau1icrqtadWgiub9Cen+pdZkTvVAvAwqMVLNcL+vTpEzxN0IyhjEecVw67ynDVnUMrHlk58YH7pTUhHo5XafP0/XeL5QA1aq+oUyddio74eKoi08Vc/aTevXFSr15BzY8ZLfo8VfebaVNrtXbNWnz19dfy5FXHxcUlgorpsmVkpeBQiqvOXbp0wal9T5UhCIWFjguHNMqkOa3RqLNpkyZyRZuijyvw+QeM1bxctWYvF0ktq/DwybUZ3tpltxsP2UhP794nxby3XeEmb7gEsGTxEpSWlckVzXbNhjqvl5cP+qG9Ph86d+4kyhP6bNy4CdzOTG0cbzHr3r2b7Dyl5pEX9ajGTqUV67PWAqISYuboqNLdnr1dTiTJyc1FSXEJHHEO6fKaN2uG5llZcp0Z5xvKRauMxM0CoXlLkEMqcqA3u2LYFTK5V7hYydQ7BYPDM2py3LwJiWrNhASxEOaYnmbein4jwdYkVSevKi31JF1sALj5iUcZcUGWKlJOxvnU5kXliYSo+EZEaeFUeHXhVTyjZyRchDdK3wiPkV803No4RukwvpG/Nl6s79VeBzFDrAji+K/zCZ3l1EA9rIKpSQY4vGKLRTnUMlDh1JvMays6BeCYY5qK8ZyCJw6Fh37KX09zfXyrtPgkDRwvU1DplB/fFY3avGjpUXi0fpHeqwt/pHDp06ktnbWNr6WnzgREIVWFGYnISGEKj/6pxtCqUqtwfhMf5zJmTtGkDWecmtChxVEX70Z0KLrUsy7SsXDUjAPhE4Wa4an3WLt27gq2qPrEWJGU3ZE+zPq2OFAbDvwhBIQCkJObE1TraTPMMGUmofW33i0O1AUHjnoBUeNwGuYZDZXIBGpfKCSWszhQ1xw46gWEGaZKk5N0/fyDYTSToEmFmfDUNcMsfH8uDvwhBIR7qak+NnK01lWLYtak1ohDll9tOPCHEBAucGnXArQZplC0bNHSsHfRwlnvFgdqwoE/hIDQxJmOQmLkeFCC5SwO1AcH6mwlvT6IUzi5wky7I7vOGlXW7uV4y8ay+qzgrafFgbriwB9CQJhZowm6YoI191CcsJ51zYE6X0mvawIVPksIFCes55HkwB9iDnIkGWKlZXFAywFLQLTcsN4tDug4YAmIjiHWp8UBLQcsAdFyw3q3OKDjwP8DSklRRQoUcgsAAAAASUVORK5CYII=;fontSize=21;fontStyle=1" vertex="1" parent="1">
          <mxGeometry x="798.19" y="696" width="77.47" height="43" as="geometry" />
        </mxCell>
        <mxCell id="a6vqPckB2kI22RjsVBpU-8" value="镜像仓库" style="outlineConnect=0;fontColor=#232F3E;gradientColor=none;fillColor=#277116;strokeColor=none;dashed=0;verticalLabelPosition=bottom;verticalAlign=top;align=center;html=1;fontSize=20;fontStyle=1;aspect=fixed;pointerEvents=1;shape=mxgraph.aws4.iot_analytics_data_store;shadow=1;" vertex="1" parent="1">
          <mxGeometry x="574" y="683" width="39.11" height="56.5" as="geometry" />
        </mxCell>
        <mxCell id="a6vqPckB2kI22RjsVBpU-9" style="edgeStyle=none;rounded=0;orthogonalLoop=1;jettySize=auto;html=1;fontFamily=Tahoma;fontSize=20;fontStyle=1;strokeWidth=3;shadow=1;exitX=0.25;exitY=1;exitDx=0;exitDy=0;" edge="1" parent="1" source="Ln0wYWGK2Pg7mDHhLt9o-35" target="a6vqPckB2kI22RjsVBpU-8">
          <mxGeometry relative="1" as="geometry">
            <mxPoint x="737.5613175932976" y="698.75" as="targetPoint" />
            <mxPoint x="744.7635110434121" y="674" as="sourcePoint" />
          </mxGeometry>
        </mxCell>
        <mxCell id="a6vqPckB2kI22RjsVBpU-11" value="" style="shape=image;verticalLabelPosition=bottom;labelBackgroundColor=#ffffff;verticalAlign=top;aspect=fixed;imageAspect=0;image=data:image/png,iVBORw0KGgoAAAANSUhEUgAAAHIAAAAkCAYAAABVCm6XAAAJbklEQVR4Ae1Za2wU1xX+Zta7a1xiEGkiHB5OW5GaUmjVpAVZtqWUFJnwSFpVYIObpqrAFGiUtoinVEUUzEMtSYVAIVISiQCNIiUUAcUtiSqMAwnlBxioi5JCbQhpRVrba/zc3bnVd3fPeDw7u17wGhV3rzR7H+fcc849557HzBqWZSlk2z2vAfOeP0H2AFoDWUMOk4uQNWTWkMNEA8PkGFmPzBoypoFo098QPvveMFHHvXuMQXkkjdhZ8yy6XvopwnW/v3e1MAwkH5Qhu9/YAtUR0mro3rcVqrN9GKjk3jyCcScfBCKNZxA5eQi9dQcTTu0rnIycR78NqzkWckcsrYG/7OkEvOxCZjWQ0pA0WO8f34DqaIdBvnn3gYNIPCfyk5Bej8vkNQ+UPo0R1TWZlTpLLUEDOQkrjoVo419sozmW7SGN6Cssgq/omzA+l6/XrZufINp4BtZnN2JG7rpl46czaGpqwtGjR8G+oaEBZWVlmDp1KkpLSzFq1Kh0SPzf4bBWSWlIqOSfYRk+c6vWwXxgnKfiwnUH0f3OLoTPvgtf7V4Eyp/xxJPFtrY2rFmzBvv27ZMl3Z88eVL3NOL27duxePHifvChmJDnkSNH9EUifV6i9evXDwWrjNBUXaHUhmS+82q5VWsHNIy/7LvIeewJdG7+IVgI5Tw6M6nRacTZs2fbiqMHzps3T7NubW3VSm1ubkZ1dTXOnz+vDeolVybWampqwMfZli9f7pz+z40NhkYWO6me0M8eV63PfDn2/OAR1fHS8qT4vX/9IAEWvdWm2jfMVx2vrEmACd/p06ervLw8VVRUpE6cOOGJt3PnTg0/d+6cJ1xoDaa/evWqloOybNq0ScuSTJ7B8Mn03vDl02pAQ/Ycf121LZlkP5Gb1/opkvPO19fY8LYlj6j2jfNVz/tv23jECT33DXvuPAgVRsWNHTtWUZFOmHvc0tKSEu7Gv935oUOHtCyzZs0aUj63K9dA+OGPTqvUORJA9MoHQMAC3dc39QmY9/flROt6I7p2VsHqDMEcdR+MMeNg3bgM61+X0PO71Yj+/UPkVm3Ve3Iemwnim+P7h2vJicx/hYWFKcOWV7HDfFZfX49FixaB42vXrmka+fn5WLFihR4zdO/fv1/DGaqnTZsGCZcHDhxASUmJzoMXLlzQ+KSxZcsWW5Z169bZY2f+HD16NObOnavzNs/BfYIrc/IR3hMnTtS8k+V5KfQOHz6s+TG9zJkzB0wrPKPIaQsjA0MNHFrbN3xNhX7+BdX+iy+qnhOv9rupHbsqEtajHa2q68Aqvc593Qc36j2R65cUb47zdjFMijc6129nLB5dUFBgh0UJjaSzd+9e5YYRzmfp0qW6Jw3iCi2BS08Yo4Hgy7r0M2bMUHw4F9np1Zx78V64cKGNJ/jJ5OR+oS1yyh7pw1dOJfdI1R1C+L3fAlYbjGDsDdHpTarlOqzrpxEofx7+0h/J3YAxIh/Biu1QkTZEG/+E8JnX4C97FuZDk0GazkZPYaOHuNvq1ashHuKGyfzYsWMyBGnRC1euXKnXeOv5+rJs2TI9lwKKXs0bzxsu0cAmEh8QlxHC2VhosZJlI23KTJ6kQT7JGnHoSfQuehzxyZ8FlVTCnKeSMxV9zddM4ZGdL5erWy9M7PfQ8nILIldOaVj0P832msDYc1329/x5hydOqpwkN1puvbtnYUQ+4kVeOVZoLFiwIIE/iyehKTddaLlzJAsewaXMznPSU6VYI47AhLeblpyZnia4PAv3LlmyxF4T2KpVq2zeIqfApI80v688v7WG63dAtVyM5cagZffq5qW+i5eXr9f7fdrpg8IYPR7GAwUwghasT045IH1D5hg2yWt9EGiPoMe5H8kvzDfORg9x5lh6Ar2Obdu2bU5UPWb+dNNIQIovMC+ykbe8FgmuvN/K3N3zg4azyX7KJx89mAPZ3FFA1gaU01De75HRy28BQQVDKRj6JSUWWq1PaZAfa6bmg1+B70vfQuTDHfDP2qHXEn66r8EIGoDfSgBxQUIqD8THaQiBuTcy5LKJQtxwmTvDkZOuwNlTQaJE57p7XFdXp5eS0eEHgztpTt4M517FHOkOKKcJeHpk4KlXYT5UBNAbxSMDFqLXj8H6rM8rA/Nfg+pqQu+h7yNydgfC9b+0z6Px4vutm6cQvVprw2RAwcXD1q5dK8tJe+YXyZusFlM1p1J4+wfTxICseL0aL+Fgm5zLi86A8pvK25Dm56cguOA4At95Eb7C6brYMXIt3Ufqnwd6Y4oxgvkIPPU2/DNfhDluBvwlG205oud+HdsXjO2Lnv+NDXMOmPBZpDgTvhMuY4Y3fsJjY0kvyhW4u6dHS0jatWuXG6wLFAm9CUDXglwavkZ4GU3kcm1La0pv5vnZvOTkuVMZWW9M5pEigW/SQviffAf+4hfieTIKdasBvce/F8uhcURj5ASYBcWyDZFTz8H65x9gBKN2fjUf7P/+KMg0iOQGetyUKVOwe/dund8YHlkpVlZW6k94vJleFaXQcvdSFbJCpLJpOBqCBuEnwXQbwzj5kn9xcbGWiXQoH2WTajZdem48qbQpI99fRU6OKyoq3OgJc2a/AT8IcJdvcjXUrYuw/vEmAAV0NiD87uMwH66EOW42jLwJmrhqvYjoR69AtV6AEYzx8339V/A9XAH4k/9zUVVVpfMDS3wqSPKgW2J64oYNG9zLSeekyxtNw/G2u288jTPgbY9Tr62tRXl5ucZ3K1c8KhTq/3qVVDAXgBdOLtjmzZtdUGiPTUnbTFLsJFACYN4/BdaN2Bce/inCW2Dd2A/16X79Jwnnso5ADG5MqIBvUrUXuYQ13npWePKexdtO4alshkkaxauoYPjke1qy4mjPnj16L40onkOarFq5h5dGQnAqWsy5NCbpUEYWKjQg5aYhuO4ssEQeoe08MOVlc+ZxyskQTjoS8kVO4pKnFy1NKDAKKf9Y1kjxH+vjrYh+vE1XsQoKBgyoeFXrNTcLfwJfUf9/EZz0suPMaiCt0KpZ5qhYBWsYsdeSgkUwwm1ATzPQfiHmgnGX5GuLOb4ys5JmqaXUQNqGNMaUwKeWwcgthDFmLhDs/0KuOhpgXXwSsEJA3ldhjJyaknEWmFkNpB1a02IbbYP69z5gZCmMvMTvp2nRyCLdkQYya8g7EiG7KRMa8PyykwnCWRp3VwNZQ95dfQ8Zt6whh0y1d5dw1pB3V99Dxu2/KoIn5OmUckgAAAAASUVORK5CYII=;fontSize=20;fontStyle=1;sketch=0;" vertex="1" parent="1">
          <mxGeometry x="893" y="306" width="167.83" height="53" as="geometry" />
        </mxCell>
        <mxCell id="a6vqPckB2kI22RjsVBpU-12" value="" style="shape=image;verticalLabelPosition=bottom;labelBackgroundColor=#ffffff;verticalAlign=top;aspect=fixed;imageAspect=0;image=data:image/png,iVBORw0KGgoAAAANSUhEUgAAAEwAAAAmCAYAAABu+H0XAAAFdElEQVRoBe1aa1BVVRT+RNGZ/JMpOMnL1FQePnF8IGBhicLkI1QkjZeKzJU7MJQjmdb4QElGG1MJGVS0HHFSdExQhLSiTEkpSME3Xh+EoIApiajVrO2czblwzrl3I1PMdNbM5azHt9bd9ztr77P3GToM8fT9G7pYzYCN1UgdyBjQCRNsBJ0wnTBBBgTheofphAkyIAjXO0wnTJABQbjeYTphggwIwjsJ4tscnr5lA6+ZuGYdyq9d57aWMm1KIAIDJnDIvAWxXFdSQoKDMN7P1yz0fcEJHMo5ipqaWjO/liFMGP3AEZ5DtWpqxlLTMpCatt0MI9UzxkQh/v2lZjE1Y6FhHnp0f4mFT5/5VQ0Gh14v44PFcfAeO7oFhr43eOY0bNqcjsO5+S3iSg6hNSw6KuK5yKIBREeFK42D+fxe88GokZ6qcSkQFhrCyZJ8SlevMSORfTCTk/XkyRMU/lyEzD1ZqKioZClE6JrEZYiPMyiVaOET6jDqDGcnB9jb27UoZK1DqxuohnHhfJwqPKNazsbGBoboSNW4FPCf4IdPVn8smUhetxE5R/JRW1vHfEnJG+D3ug/iYw1wdOyF0DnBaGxsxKaUdJ6jpAgRRgWWLFulVKfNfB7urngr0B9fZ+cq1owxzEOXzp0VY5LT1tYWH324iJl379bAGJeA0rILUphfjx0vwJmiYqxcvgS+3mNA61z24TyUl5s4prkiNCWbJ7e1ff7CJVbSuDBKsXS3bi8iMnw2i2XtP6SIIeei94zo2vUFFqdFXYksKfnevT+QnXOUmZRDpGlJuyIsY+duNlZ7+x6YGzmnxbgN0XO5L+dIHtebK57Dh3CXRAZ3KCi5R4/hXOmzDhzn46WAaHJZNSVdXJxg16N7U5aV2qXLV0F30Fo5kvsNpk4OwOhRI2A0zMf+A9n8kd/bxRkzgiazUju/3KNaskuXzujbpzeLU2ddvHRFFSsPlJadh7vbAPTsaYdX+/UBjV1JLBJGj175XkmpiJovL/9bLEpoWnjVcHI/dRkRRkJP1NVJnz7TF0Rw2LaMXejX9xVuyxVHh17cLCu7yHVLym9nSzEjaAqDDfJwUyWsXU1JGu3JU6dBnUYyc/pUuA7sj0GD3DBxgh/zfb5lG+rq7jH9v/hjscNoGzAlaE6rp2RrflRa+g5M9B/PUqnLOtnaMr2hoQFbt+/SLHnzVgWPu7r257olhbpKEuo2NbFIGCWaTDfYR61IW/uvlpuwe08WQoLfxjjfsbx8Suo20OZTSx49asSVq9fYOubmOgBEhJyAjh1tMGzoYF6iuvoOTNdvwt1tIPPdvl2tOh0J0O6mpPRLPtuUhoaGR5LJNpxaiz0HAmxvJdmzQ6ZLKrs+ffoXLly8jLB3Z7G1eUlCPNOJXJLj3xWY4Zsb7Zawhw8fgtYrSTanbpVUi1fa1dfX/8lwNLUn+b9hlnP//gMkJq1Hcck5dhSjI58k0tZGsptfrZqS8qTVK5c+99Go+eFbXl+u7/giEz7eY5hr776D8pCm/vjxY6xITOZHIzoreni44qu9B3DNdIPlVlZWYcWqtVibtJxvQ+jFAPm1RIgwWoADJr2pVc9ijLYp1hJGxSy9tlH7QtqMUielbExmEJqa9Cn6pQTFJWfh4uzEzpLyfCfHpi2J3C/XhaYk3QFLh2d5cSWdavxbcuKnQgROnoUffjzJv3L4sMGICHvHjCx6L0ZC79foEK4lQh1GhVp7x7UG0dqbYE3erYrfERO7mJ0RpReID+rrUVVVjZqaOuzLOojqO3cRHhrCXgP5+niBtiZ0MFeSDvo/oyjRou4TmpLqZf4/EZ0wwXutE6YTJsiAIFzvMJ0wQQYE4XqH6YQJMiAI/weP5bPGTElzegAAAABJRU5ErkJggg==;" vertex="1" parent="1">
          <mxGeometry x="688" y="289" width="50" height="25" as="geometry" />
        </mxCell>
        <mxCell id="a6vqPckB2kI22RjsVBpU-13" value="" style="shape=image;verticalLabelPosition=bottom;labelBackgroundColor=#ffffff;verticalAlign=top;aspect=fixed;imageAspect=0;image=data:image/png,iVBORw0KGgoAAAANSUhEUgAAAEwAAAAmCAYAAABu+H0XAAAFdElEQVRoBe1aa1BVVRT+RNGZ/JMpOMnL1FQePnF8IGBhicLkI1QkjZeKzJU7MJQjmdb4QElGG1MJGVS0HHFSdExQhLSiTEkpSME3Xh+EoIApiajVrO2czblwzrl3I1PMdNbM5azHt9bd9ztr77P3GToM8fT9G7pYzYCN1UgdyBjQCRNsBJ0wnTBBBgTheofphAkyIAjXO0wnTJABQbjeYTphggwIwjsJ4tscnr5lA6+ZuGYdyq9d57aWMm1KIAIDJnDIvAWxXFdSQoKDMN7P1yz0fcEJHMo5ipqaWjO/liFMGP3AEZ5DtWpqxlLTMpCatt0MI9UzxkQh/v2lZjE1Y6FhHnp0f4mFT5/5VQ0Gh14v44PFcfAeO7oFhr43eOY0bNqcjsO5+S3iSg6hNSw6KuK5yKIBREeFK42D+fxe88GokZ6qcSkQFhrCyZJ8SlevMSORfTCTk/XkyRMU/lyEzD1ZqKioZClE6JrEZYiPMyiVaOET6jDqDGcnB9jb27UoZK1DqxuohnHhfJwqPKNazsbGBoboSNW4FPCf4IdPVn8smUhetxE5R/JRW1vHfEnJG+D3ug/iYw1wdOyF0DnBaGxsxKaUdJ6jpAgRRgWWLFulVKfNfB7urngr0B9fZ+cq1owxzEOXzp0VY5LT1tYWH324iJl379bAGJeA0rILUphfjx0vwJmiYqxcvgS+3mNA61z24TyUl5s4prkiNCWbJ7e1ff7CJVbSuDBKsXS3bi8iMnw2i2XtP6SIIeei94zo2vUFFqdFXYksKfnevT+QnXOUmZRDpGlJuyIsY+duNlZ7+x6YGzmnxbgN0XO5L+dIHtebK57Dh3CXRAZ3KCi5R4/hXOmzDhzn46WAaHJZNSVdXJxg16N7U5aV2qXLV0F30Fo5kvsNpk4OwOhRI2A0zMf+A9n8kd/bxRkzgiazUju/3KNaskuXzujbpzeLU2ddvHRFFSsPlJadh7vbAPTsaYdX+/UBjV1JLBJGj175XkmpiJovL/9bLEpoWnjVcHI/dRkRRkJP1NVJnz7TF0Rw2LaMXejX9xVuyxVHh17cLCu7yHVLym9nSzEjaAqDDfJwUyWsXU1JGu3JU6dBnUYyc/pUuA7sj0GD3DBxgh/zfb5lG+rq7jH9v/hjscNoGzAlaE6rp2RrflRa+g5M9B/PUqnLOtnaMr2hoQFbt+/SLHnzVgWPu7r257olhbpKEuo2NbFIGCWaTDfYR61IW/uvlpuwe08WQoLfxjjfsbx8Suo20OZTSx49asSVq9fYOubmOgBEhJyAjh1tMGzoYF6iuvoOTNdvwt1tIPPdvl2tOh0J0O6mpPRLPtuUhoaGR5LJNpxaiz0HAmxvJdmzQ6ZLKrs+ffoXLly8jLB3Z7G1eUlCPNOJXJLj3xWY4Zsb7Zawhw8fgtYrSTanbpVUi1fa1dfX/8lwNLUn+b9hlnP//gMkJq1Hcck5dhSjI58k0tZGsptfrZqS8qTVK5c+99Go+eFbXl+u7/giEz7eY5hr776D8pCm/vjxY6xITOZHIzoreni44qu9B3DNdIPlVlZWYcWqtVibtJxvQ+jFAPm1RIgwWoADJr2pVc9ijLYp1hJGxSy9tlH7QtqMUielbExmEJqa9Cn6pQTFJWfh4uzEzpLyfCfHpi2J3C/XhaYk3QFLh2d5cSWdavxbcuKnQgROnoUffjzJv3L4sMGICHvHjCx6L0ZC79foEK4lQh1GhVp7x7UG0dqbYE3erYrfERO7mJ0RpReID+rrUVVVjZqaOuzLOojqO3cRHhrCXgP5+niBtiZ0MFeSDvo/oyjRou4TmpLqZf4/EZ0wwXutE6YTJsiAIFzvMJ0wQQYE4XqH6YQJMiAI/weP5bPGTElzegAAAABJRU5ErkJggg==;" vertex="1" parent="1">
          <mxGeometry x="764" y="289" width="50" height="25" as="geometry" />
        </mxCell>
        <mxCell id="a6vqPckB2kI22RjsVBpU-14" value="" style="shape=image;verticalLabelPosition=bottom;labelBackgroundColor=#ffffff;verticalAlign=top;aspect=fixed;imageAspect=0;image=data:image/png,iVBORw0KGgoAAAANSUhEUgAAAEwAAAAmCAYAAABu+H0XAAAFdElEQVRoBe1aa1BVVRT+RNGZ/JMpOMnL1FQePnF8IGBhicLkI1QkjZeKzJU7MJQjmdb4QElGG1MJGVS0HHFSdExQhLSiTEkpSME3Xh+EoIApiajVrO2czblwzrl3I1PMdNbM5azHt9bd9ztr77P3GToM8fT9G7pYzYCN1UgdyBjQCRNsBJ0wnTBBBgTheofphAkyIAjXO0wnTJABQbjeYTphggwIwjsJ4tscnr5lA6+ZuGYdyq9d57aWMm1KIAIDJnDIvAWxXFdSQoKDMN7P1yz0fcEJHMo5ipqaWjO/liFMGP3AEZ5DtWpqxlLTMpCatt0MI9UzxkQh/v2lZjE1Y6FhHnp0f4mFT5/5VQ0Gh14v44PFcfAeO7oFhr43eOY0bNqcjsO5+S3iSg6hNSw6KuK5yKIBREeFK42D+fxe88GokZ6qcSkQFhrCyZJ8SlevMSORfTCTk/XkyRMU/lyEzD1ZqKioZClE6JrEZYiPMyiVaOET6jDqDGcnB9jb27UoZK1DqxuohnHhfJwqPKNazsbGBoboSNW4FPCf4IdPVn8smUhetxE5R/JRW1vHfEnJG+D3ug/iYw1wdOyF0DnBaGxsxKaUdJ6jpAgRRgWWLFulVKfNfB7urngr0B9fZ+cq1owxzEOXzp0VY5LT1tYWH324iJl379bAGJeA0rILUphfjx0vwJmiYqxcvgS+3mNA61z24TyUl5s4prkiNCWbJ7e1ff7CJVbSuDBKsXS3bi8iMnw2i2XtP6SIIeei94zo2vUFFqdFXYksKfnevT+QnXOUmZRDpGlJuyIsY+duNlZ7+x6YGzmnxbgN0XO5L+dIHtebK57Dh3CXRAZ3KCi5R4/hXOmzDhzn46WAaHJZNSVdXJxg16N7U5aV2qXLV0F30Fo5kvsNpk4OwOhRI2A0zMf+A9n8kd/bxRkzgiazUju/3KNaskuXzujbpzeLU2ddvHRFFSsPlJadh7vbAPTsaYdX+/UBjV1JLBJGj175XkmpiJovL/9bLEpoWnjVcHI/dRkRRkJP1NVJnz7TF0Rw2LaMXejX9xVuyxVHh17cLCu7yHVLym9nSzEjaAqDDfJwUyWsXU1JGu3JU6dBnUYyc/pUuA7sj0GD3DBxgh/zfb5lG+rq7jH9v/hjscNoGzAlaE6rp2RrflRa+g5M9B/PUqnLOtnaMr2hoQFbt+/SLHnzVgWPu7r257olhbpKEuo2NbFIGCWaTDfYR61IW/uvlpuwe08WQoLfxjjfsbx8Suo20OZTSx49asSVq9fYOubmOgBEhJyAjh1tMGzoYF6iuvoOTNdvwt1tIPPdvl2tOh0J0O6mpPRLPtuUhoaGR5LJNpxaiz0HAmxvJdmzQ6ZLKrs+ffoXLly8jLB3Z7G1eUlCPNOJXJLj3xWY4Zsb7Zawhw8fgtYrSTanbpVUi1fa1dfX/8lwNLUn+b9hlnP//gMkJq1Hcck5dhSjI58k0tZGsptfrZqS8qTVK5c+99Go+eFbXl+u7/giEz7eY5hr776D8pCm/vjxY6xITOZHIzoreni44qu9B3DNdIPlVlZWYcWqtVibtJxvQ+jFAPm1RIgwWoADJr2pVc9ijLYp1hJGxSy9tlH7QtqMUielbExmEJqa9Cn6pQTFJWfh4uzEzpLyfCfHpi2J3C/XhaYk3QFLh2d5cSWdavxbcuKnQgROnoUffjzJv3L4sMGICHvHjCx6L0ZC79foEK4lQh1GhVp7x7UG0dqbYE3erYrfERO7mJ0RpReID+rrUVVVjZqaOuzLOojqO3cRHhrCXgP5+niBtiZ0MFeSDvo/oyjRou4TmpLqZf4/EZ0wwXutE6YTJsiAIFzvMJ0wQQYE4XqH6YQJMiAI/weP5bPGTElzegAAAABJRU5ErkJggg==;" vertex="1" parent="1">
          <mxGeometry x="725" y="336" width="50" height="25" as="geometry" />
        </mxCell>
      </root>
    </mxGraphModel>
  </diagram>
</mxfile>
